<svg xmlns="http://www.w3.org/2000/svg" xmlns:xlink="http://www.w3.org/1999/xlink" width="1200" zoomAndPan="magnify" viewBox="0 0 900 472.499986" height="630" preserveAspectRatio="xMidYMid meet" version="1.0"><defs><filter x="0%" y="0%" width="100%" height="100%" id="c2a581edf3"><feColorMatrix values="0 0 0 0 1 0 0 0 0 1 0 0 0 0 1 0 0 0 1 0" color-interpolation-filters="sRGB"/></filter><g/><clipPath id="0a49aedb6c"><path d="M 334.589844 50 L 580.328125 50 L 580.328125 254 L 334.589844 254 Z M 334.589844 50 " clip-rule="nonzero"/></clipPath><clipPath id="5525e7d6e7"><path d="M 542.859375 163.34375 C 536.566406 163.34375 531.40625 158.1875 531.40625 151.894531 C 531.40625 145.601562 536.566406 140.5 542.859375 140.5 C 549.148438 140.5 554.253906 145.601562 554.253906 151.894531 C 554.253906 158.1875 549.148438 163.34375 542.859375 163.34375 Z M 489.117188 218.898438 C 487.304688 218.898438 485.832031 217.480469 485.832031 215.667969 L 485.832031 155.179688 L 445.46875 155.179688 L 445.46875 226.777344 L 471.035156 226.777344 C 472.792969 226.777344 474.265625 228.25 474.265625 230.066406 L 474.265625 249.90625 C 474.265625 251.71875 472.792969 253.195312 471.035156 253.195312 L 413.382812 253.195312 C 411.570312 253.195312 410.152344 251.71875 410.152344 249.90625 L 410.152344 230.066406 C 410.152344 228.25 411.570312 226.777344 413.382812 226.777344 L 438.949219 226.777344 L 438.949219 155.179688 L 398.589844 155.179688 L 398.589844 215.667969 C 398.589844 219.976562 392.011719 219.976562 392.011719 215.667969 L 392.011719 155.179688 L 369.167969 155.179688 L 340.199219 184.148438 C 337.820312 186.585938 333.679688 184.09375 334.816406 180.804688 L 344.507812 151.78125 L 334.816406 123.039062 C 333.679688 119.808594 337.820312 117.257812 340.199219 119.695312 L 369.167969 148.664062 L 392.011719 148.664062 L 392.011719 88.175781 C 392.011719 83.867188 398.589844 83.867188 398.589844 88.175781 L 398.589844 148.664062 L 438.949219 148.664062 L 438.949219 77.066406 L 413.382812 77.066406 C 411.570312 77.066406 410.152344 75.59375 410.152344 73.777344 L 410.152344 53.9375 C 410.152344 52.125 411.570312 50.648438 413.382812 50.648438 L 471.035156 50.648438 C 472.792969 50.648438 474.265625 52.125 474.265625 53.9375 L 474.265625 73.777344 C 474.265625 75.59375 472.792969 77.066406 471.035156 77.066406 L 445.46875 77.066406 L 445.46875 148.664062 L 485.832031 148.664062 L 485.832031 88.175781 C 485.832031 83.867188 492.347656 83.867188 492.347656 88.175781 L 492.347656 148.664062 L 513.324219 148.664062 L 513.324219 110.171875 C 513.324219 107.5625 516.273438 106.035156 518.425781 107.507812 L 578.855469 149.230469 C 580.726562 150.53125 580.726562 153.3125 578.855469 154.613281 L 518.425781 196.335938 C 516.328125 197.808594 513.324219 196.28125 513.324219 193.617188 L 513.324219 155.179688 L 492.347656 155.179688 L 492.347656 215.667969 C 492.347656 217.480469 490.933594 218.898438 489.117188 218.898438 Z M 519.84375 116.40625 L 519.84375 187.4375 L 571.257812 151.894531 Z M 345.472656 134.207031 L 351.085938 150.703125 C 351.3125 151.382812 351.3125 152.121094 351.085938 152.800781 L 345.414062 169.691406 L 363.214844 151.894531 Z M 416.671875 70.492188 L 467.746094 70.492188 L 467.746094 57.167969 L 416.671875 57.167969 Z M 416.671875 246.617188 L 467.746094 246.617188 L 467.746094 233.351562 L 416.671875 233.351562 Z M 542.859375 147.074219 C 536.453125 147.074219 536.453125 156.769531 542.859375 156.769531 C 549.265625 156.769531 549.265625 147.074219 542.859375 147.074219 Z M 542.859375 147.074219 " clip-rule="evenodd"/></clipPath><linearGradient x1="2167.3301" gradientTransform="matrix(0.0566874, 0, 0, 0.0566874, 334.588532, 29.051836)" y1="380.999734" x2="2167.3301" gradientUnits="userSpaceOnUse" y2="3953.999648" id="59e01cfd99"><stop stop-opacity="1" stop-color="rgb(39.99939%, 39.99939%, 79.998779%)" offset="0"/><stop stop-opacity="1" stop-color="rgb(40.457153%, 39.694214%, 80.151367%)" offset="0.00390625"/><stop stop-opacity="1" stop-color="rgb(40.914917%, 39.389038%, 80.303955%)" offset="0.0078125"/><stop stop-opacity="1" stop-color="rgb(41.374207%, 39.082336%, 80.456543%)" offset="0.0117188"/><stop stop-opacity="1" stop-color="rgb(41.835022%, 38.775635%, 80.610657%)" offset="0.015625"/><stop stop-opacity="1" stop-color="rgb(42.294312%, 38.468933%, 80.763245%)" offset="0.0195313"/><stop stop-opacity="1" stop-color="rgb(42.753601%, 38.162231%, 80.917358%)" offset="0.0234375"/><stop stop-opacity="1" stop-color="rgb(43.212891%, 37.85553%, 81.069946%)" offset="0.0273438"/><stop stop-opacity="1" stop-color="rgb(43.673706%, 37.550354%, 81.22406%)" offset="0.03125"/><stop stop-opacity="1" stop-color="rgb(44.132996%, 37.243652%, 81.376648%)" offset="0.0351563"/><stop stop-opacity="1" stop-color="rgb(44.592285%, 36.936951%, 81.530762%)" offset="0.0390625"/><stop stop-opacity="1" stop-color="rgb(45.051575%, 36.630249%, 81.68335%)" offset="0.0429688"/><stop stop-opacity="1" stop-color="rgb(45.510864%, 36.325073%, 81.835938%)" offset="0.046875"/><stop stop-opacity="1" stop-color="rgb(45.970154%, 36.018372%, 81.988525%)" offset="0.0507813"/><stop stop-opacity="1" stop-color="rgb(46.430969%, 35.71167%, 82.142639%)" offset="0.0546875"/><stop stop-opacity="1" stop-color="rgb(46.890259%, 35.404968%, 82.295227%)" offset="0.0585938"/><stop stop-opacity="1" stop-color="rgb(47.349548%, 35.098267%, 82.449341%)" offset="0.0625"/><stop stop-opacity="1" stop-color="rgb(47.808838%, 34.791565%, 82.601929%)" offset="0.0664063"/><stop stop-opacity="1" stop-color="rgb(48.269653%, 34.486389%, 82.756042%)" offset="0.0703125"/><stop stop-opacity="1" stop-color="rgb(48.728943%, 34.179688%, 82.90863%)" offset="0.0742188"/><stop stop-opacity="1" stop-color="rgb(49.188232%, 33.872986%, 83.062744%)" offset="0.078125"/><stop stop-opacity="1" stop-color="rgb(49.647522%, 33.566284%, 83.215332%)" offset="0.0820313"/><stop stop-opacity="1" stop-color="rgb(50.106812%, 33.261108%, 83.36792%)" offset="0.0859375"/><stop stop-opacity="1" stop-color="rgb(50.566101%, 32.954407%, 83.520508%)" offset="0.0898438"/><stop stop-opacity="1" stop-color="rgb(51.026917%, 32.647705%, 83.674622%)" offset="0.09375"/><stop stop-opacity="1" stop-color="rgb(51.486206%, 32.341003%, 83.827209%)" offset="0.0976563"/><stop stop-opacity="1" stop-color="rgb(51.945496%, 32.034302%, 83.981323%)" offset="0.101563"/><stop stop-opacity="1" stop-color="rgb(52.404785%, 31.7276%, 84.133911%)" offset="0.105469"/><stop stop-opacity="1" stop-color="rgb(52.865601%, 31.422424%, 84.288025%)" offset="0.109375"/><stop stop-opacity="1" stop-color="rgb(53.32489%, 31.115723%, 84.440613%)" offset="0.113281"/><stop stop-opacity="1" stop-color="rgb(53.78418%, 30.809021%, 84.594727%)" offset="0.117188"/><stop stop-opacity="1" stop-color="rgb(54.243469%, 30.502319%, 84.747314%)" offset="0.121094"/><stop stop-opacity="1" stop-color="rgb(54.702759%, 30.197144%, 84.899902%)" offset="0.125"/><stop stop-opacity="1" stop-color="rgb(55.162048%, 29.890442%, 85.05249%)" offset="0.128906"/><stop stop-opacity="1" stop-color="rgb(55.622864%, 29.58374%, 85.206604%)" offset="0.132813"/><stop stop-opacity="1" stop-color="rgb(56.082153%, 29.277039%, 85.359192%)" offset="0.136719"/><stop stop-opacity="1" stop-color="rgb(56.541443%, 28.970337%, 85.513306%)" offset="0.140625"/><stop stop-opacity="1" stop-color="rgb(57.000732%, 28.663635%, 85.665894%)" offset="0.144531"/><stop stop-opacity="1" stop-color="rgb(57.460022%, 28.358459%, 85.820007%)" offset="0.148438"/><stop stop-opacity="1" stop-color="rgb(57.919312%, 28.051758%, 85.972595%)" offset="0.152344"/><stop stop-opacity="1" stop-color="rgb(58.380127%, 27.745056%, 86.126709%)" offset="0.15625"/><stop stop-opacity="1" stop-color="rgb(58.839417%, 27.438354%, 86.279297%)" offset="0.160156"/><stop stop-opacity="1" stop-color="rgb(59.298706%, 27.133179%, 86.431885%)" offset="0.164063"/><stop stop-opacity="1" stop-color="rgb(59.757996%, 26.826477%, 86.584473%)" offset="0.167969"/><stop stop-opacity="1" stop-color="rgb(60.218811%, 26.519775%, 86.738586%)" offset="0.171875"/><stop stop-opacity="1" stop-color="rgb(60.678101%, 26.213074%, 86.891174%)" offset="0.175781"/><stop stop-opacity="1" stop-color="rgb(61.13739%, 25.906372%, 87.045288%)" offset="0.179688"/><stop stop-opacity="1" stop-color="rgb(61.59668%, 25.59967%, 87.197876%)" offset="0.183594"/><stop stop-opacity="1" stop-color="rgb(62.055969%, 25.294495%, 87.35199%)" offset="0.1875"/><stop stop-opacity="1" stop-color="rgb(62.515259%, 24.987793%, 87.504578%)" offset="0.191406"/><stop stop-opacity="1" stop-color="rgb(62.976074%, 24.681091%, 87.658691%)" offset="0.195313"/><stop stop-opacity="1" stop-color="rgb(63.435364%, 24.37439%, 87.811279%)" offset="0.199219"/><stop stop-opacity="1" stop-color="rgb(63.894653%, 24.069214%, 87.963867%)" offset="0.203125"/><stop stop-opacity="1" stop-color="rgb(64.353943%, 23.762512%, 88.116455%)" offset="0.207031"/><stop stop-opacity="1" stop-color="rgb(64.814758%, 23.455811%, 88.270569%)" offset="0.210938"/><stop stop-opacity="1" stop-color="rgb(65.274048%, 23.149109%, 88.423157%)" offset="0.214844"/><stop stop-opacity="1" stop-color="rgb(65.733337%, 22.842407%, 88.577271%)" offset="0.21875"/><stop stop-opacity="1" stop-color="rgb(66.192627%, 22.535706%, 88.729858%)" offset="0.222656"/><stop stop-opacity="1" stop-color="rgb(66.651917%, 22.23053%, 88.883972%)" offset="0.226563"/><stop stop-opacity="1" stop-color="rgb(67.111206%, 21.923828%, 89.03656%)" offset="0.230469"/><stop stop-opacity="1" stop-color="rgb(67.572021%, 21.617126%, 89.190674%)" offset="0.234375"/><stop stop-opacity="1" stop-color="rgb(68.031311%, 21.310425%, 89.343262%)" offset="0.238281"/><stop stop-opacity="1" stop-color="rgb(68.490601%, 21.005249%, 89.49585%)" offset="0.242188"/><stop stop-opacity="1" stop-color="rgb(68.94989%, 20.698547%, 89.648438%)" offset="0.246094"/><stop stop-opacity="1" stop-color="rgb(69.410706%, 20.391846%, 89.802551%)" offset="0.25"/><stop stop-opacity="1" stop-color="rgb(69.869995%, 20.085144%, 89.955139%)" offset="0.253906"/><stop stop-opacity="1" stop-color="rgb(70.329285%, 19.778442%, 90.109253%)" offset="0.257812"/><stop stop-opacity="1" stop-color="rgb(70.788574%, 19.471741%, 90.261841%)" offset="0.261719"/><stop stop-opacity="1" stop-color="rgb(71.247864%, 19.166565%, 90.415955%)" offset="0.265625"/><stop stop-opacity="1" stop-color="rgb(71.707153%, 18.859863%, 90.568542%)" offset="0.269531"/><stop stop-opacity="1" stop-color="rgb(72.167969%, 18.553162%, 90.722656%)" offset="0.273438"/><stop stop-opacity="1" stop-color="rgb(72.627258%, 18.24646%, 90.875244%)" offset="0.277344"/><stop stop-opacity="1" stop-color="rgb(73.086548%, 17.941284%, 91.027832%)" offset="0.28125"/><stop stop-opacity="1" stop-color="rgb(73.545837%, 17.634583%, 91.18042%)" offset="0.285156"/><stop stop-opacity="1" stop-color="rgb(74.006653%, 17.327881%, 91.334534%)" offset="0.289063"/><stop stop-opacity="1" stop-color="rgb(74.465942%, 17.021179%, 91.487122%)" offset="0.292969"/><stop stop-opacity="1" stop-color="rgb(74.925232%, 16.714478%, 91.641235%)" offset="0.296875"/><stop stop-opacity="1" stop-color="rgb(75.384521%, 16.407776%, 91.793823%)" offset="0.300781"/><stop stop-opacity="1" stop-color="rgb(75.843811%, 16.1026%, 91.947937%)" offset="0.304688"/><stop stop-opacity="1" stop-color="rgb(76.303101%, 15.795898%, 92.100525%)" offset="0.308594"/><stop stop-opacity="1" stop-color="rgb(76.763916%, 15.489197%, 92.254639%)" offset="0.3125"/><stop stop-opacity="1" stop-color="rgb(77.223206%, 15.182495%, 92.407227%)" offset="0.316406"/><stop stop-opacity="1" stop-color="rgb(77.682495%, 14.877319%, 92.559814%)" offset="0.320313"/><stop stop-opacity="1" stop-color="rgb(78.141785%, 14.570618%, 92.712402%)" offset="0.324219"/><stop stop-opacity="1" stop-color="rgb(78.6026%, 14.263916%, 92.866516%)" offset="0.328125"/><stop stop-opacity="1" stop-color="rgb(79.06189%, 13.957214%, 93.019104%)" offset="0.332031"/><stop stop-opacity="1" stop-color="rgb(79.521179%, 13.650513%, 93.173218%)" offset="0.335938"/><stop stop-opacity="1" stop-color="rgb(79.980469%, 13.343811%, 93.325806%)" offset="0.339844"/><stop stop-opacity="1" stop-color="rgb(80.439758%, 13.038635%, 93.479919%)" offset="0.34375"/><stop stop-opacity="1" stop-color="rgb(80.899048%, 12.731934%, 93.632507%)" offset="0.347656"/><stop stop-opacity="1" stop-color="rgb(81.359863%, 12.425232%, 93.786621%)" offset="0.351563"/><stop stop-opacity="1" stop-color="rgb(81.819153%, 12.11853%, 93.939209%)" offset="0.355469"/><stop stop-opacity="1" stop-color="rgb(82.278442%, 11.813354%, 94.091797%)" offset="0.359375"/><stop stop-opacity="1" stop-color="rgb(82.737732%, 11.506653%, 94.244385%)" offset="0.363281"/><stop stop-opacity="1" stop-color="rgb(83.198547%, 11.199951%, 94.398499%)" offset="0.367188"/><stop stop-opacity="1" stop-color="rgb(83.657837%, 10.89325%, 94.551086%)" offset="0.371094"/><stop stop-opacity="1" stop-color="rgb(84.117126%, 10.588074%, 94.7052%)" offset="0.375"/><stop stop-opacity="1" stop-color="rgb(84.576416%, 10.281372%, 94.857788%)" offset="0.378906"/><stop stop-opacity="1" stop-color="rgb(85.035706%, 9.97467%, 95.011902%)" offset="0.382813"/><stop stop-opacity="1" stop-color="rgb(85.494995%, 9.667969%, 95.16449%)" offset="0.386719"/><stop stop-opacity="1" stop-color="rgb(85.955811%, 9.361267%, 95.318604%)" offset="0.390625"/><stop stop-opacity="1" stop-color="rgb(86.4151%, 9.054565%, 95.471191%)" offset="0.394531"/><stop stop-opacity="1" stop-color="rgb(86.87439%, 8.74939%, 95.623779%)" offset="0.398438"/><stop stop-opacity="1" stop-color="rgb(87.333679%, 8.442688%, 95.776367%)" offset="0.402344"/><stop stop-opacity="1" stop-color="rgb(87.794495%, 8.135986%, 95.930481%)" offset="0.40625"/><stop stop-opacity="1" stop-color="rgb(88.253784%, 7.829285%, 96.083069%)" offset="0.410156"/><stop stop-opacity="1" stop-color="rgb(88.713074%, 7.524109%, 96.237183%)" offset="0.414063"/><stop stop-opacity="1" stop-color="rgb(89.172363%, 7.217407%, 96.389771%)" offset="0.417969"/><stop stop-opacity="1" stop-color="rgb(89.631653%, 6.910706%, 96.543884%)" offset="0.421875"/><stop stop-opacity="1" stop-color="rgb(90.090942%, 6.604004%, 96.696472%)" offset="0.425781"/><stop stop-opacity="1" stop-color="rgb(90.551758%, 6.297302%, 96.850586%)" offset="0.429688"/><stop stop-opacity="1" stop-color="rgb(91.011047%, 5.990601%, 97.003174%)" offset="0.433594"/><stop stop-opacity="1" stop-color="rgb(91.470337%, 5.685425%, 97.155762%)" offset="0.4375"/><stop stop-opacity="1" stop-color="rgb(91.929626%, 5.378723%, 97.30835%)" offset="0.441406"/><stop stop-opacity="1" stop-color="rgb(92.390442%, 5.072021%, 97.462463%)" offset="0.445313"/><stop stop-opacity="1" stop-color="rgb(92.849731%, 4.76532%, 97.615051%)" offset="0.449219"/><stop stop-opacity="1" stop-color="rgb(93.309021%, 4.460144%, 97.769165%)" offset="0.453125"/><stop stop-opacity="1" stop-color="rgb(93.768311%, 4.153442%, 97.921753%)" offset="0.457031"/><stop stop-opacity="1" stop-color="rgb(94.2276%, 3.846741%, 98.075867%)" offset="0.460938"/><stop stop-opacity="1" stop-color="rgb(94.68689%, 3.540039%, 98.228455%)" offset="0.464844"/><stop stop-opacity="1" stop-color="rgb(95.147705%, 3.233337%, 98.382568%)" offset="0.46875"/><stop stop-opacity="1" stop-color="rgb(95.606995%, 2.926636%, 98.535156%)" offset="0.472656"/><stop stop-opacity="1" stop-color="rgb(96.066284%, 2.62146%, 98.687744%)" offset="0.476563"/><stop stop-opacity="1" stop-color="rgb(96.525574%, 2.314758%, 98.840332%)" offset="0.480469"/><stop stop-opacity="1" stop-color="rgb(96.986389%, 2.008057%, 98.994446%)" offset="0.484375"/><stop stop-opacity="1" stop-color="rgb(97.445679%, 1.701355%, 99.147034%)" offset="0.488281"/><stop stop-opacity="1" stop-color="rgb(97.904968%, 1.396179%, 99.301147%)" offset="0.492188"/><stop stop-opacity="1" stop-color="rgb(98.364258%, 1.089478%, 99.453735%)" offset="0.496094"/><stop stop-opacity="1" stop-color="rgb(98.823547%, 0.782776%, 99.607849%)" offset="0.5"/><stop stop-opacity="1" stop-color="rgb(99.282837%, 0.476074%, 99.760437%)" offset="0.503906"/><stop stop-opacity="1" stop-color="rgb(99.743652%, 0.169373%, 99.914551%)" offset="0.507813"/><stop stop-opacity="1" stop-color="rgb(99.871826%, 0.314331%, 99.382019%)" offset="0.511719"/><stop stop-opacity="1" stop-color="rgb(100%, 0.45929%, 98.849487%)" offset="0.515625"/><stop stop-opacity="1" stop-color="rgb(100%, 0.778198%, 98.051453%)" offset="0.519531"/><stop stop-opacity="1" stop-color="rgb(100%, 1.097107%, 97.254944%)" offset="0.523438"/><stop stop-opacity="1" stop-color="rgb(100%, 1.416016%, 96.456909%)" offset="0.527344"/><stop stop-opacity="1" stop-color="rgb(100%, 1.734924%, 95.6604%)" offset="0.53125"/><stop stop-opacity="1" stop-color="rgb(100%, 2.053833%, 94.862366%)" offset="0.535156"/><stop stop-opacity="1" stop-color="rgb(100%, 2.372742%, 94.065857%)" offset="0.539062"/><stop stop-opacity="1" stop-color="rgb(100%, 2.69165%, 93.267822%)" offset="0.542969"/><stop stop-opacity="1" stop-color="rgb(100%, 3.010559%, 92.471313%)" offset="0.546875"/><stop stop-opacity="1" stop-color="rgb(100%, 3.329468%, 91.673279%)" offset="0.550781"/><stop stop-opacity="1" stop-color="rgb(100%, 3.648376%, 90.87677%)" offset="0.554688"/><stop stop-opacity="1" stop-color="rgb(100%, 3.967285%, 90.078735%)" offset="0.558594"/><stop stop-opacity="1" stop-color="rgb(100%, 4.286194%, 89.282227%)" offset="0.5625"/><stop stop-opacity="1" stop-color="rgb(100%, 4.605103%, 88.484192%)" offset="0.566406"/><stop stop-opacity="1" stop-color="rgb(100%, 4.924011%, 87.687683%)" offset="0.570313"/><stop stop-opacity="1" stop-color="rgb(100%, 5.24292%, 86.889648%)" offset="0.574219"/><stop stop-opacity="1" stop-color="rgb(100%, 5.561829%, 86.09314%)" offset="0.578125"/><stop stop-opacity="1" stop-color="rgb(100%, 5.880737%, 85.295105%)" offset="0.582031"/><stop stop-opacity="1" stop-color="rgb(100%, 6.199646%, 84.498596%)" offset="0.585938"/><stop stop-opacity="1" stop-color="rgb(100%, 6.518555%, 83.700562%)" offset="0.589844"/><stop stop-opacity="1" stop-color="rgb(100%, 6.837463%, 82.904053%)" offset="0.59375"/><stop stop-opacity="1" stop-color="rgb(100%, 7.156372%, 82.106018%)" offset="0.597656"/><stop stop-opacity="1" stop-color="rgb(100%, 7.475281%, 81.309509%)" offset="0.601562"/><stop stop-opacity="1" stop-color="rgb(100%, 7.794189%, 80.511475%)" offset="0.605469"/><stop stop-opacity="1" stop-color="rgb(100%, 8.113098%, 79.714966%)" offset="0.609375"/><stop stop-opacity="1" stop-color="rgb(100%, 8.432007%, 78.916931%)" offset="0.613281"/><stop stop-opacity="1" stop-color="rgb(100%, 8.750916%, 78.120422%)" offset="0.617188"/><stop stop-opacity="1" stop-color="rgb(100%, 9.069824%, 77.322388%)" offset="0.621094"/><stop stop-opacity="1" stop-color="rgb(100%, 9.388733%, 76.525879%)" offset="0.625"/><stop stop-opacity="1" stop-color="rgb(100%, 9.707642%, 75.727844%)" offset="0.628906"/><stop stop-opacity="1" stop-color="rgb(100%, 10.02655%, 74.931335%)" offset="0.632813"/><stop stop-opacity="1" stop-color="rgb(100%, 10.345459%, 74.133301%)" offset="0.636719"/><stop stop-opacity="1" stop-color="rgb(100%, 10.664368%, 73.336792%)" offset="0.640625"/><stop stop-opacity="1" stop-color="rgb(100%, 10.983276%, 72.538757%)" offset="0.644531"/><stop stop-opacity="1" stop-color="rgb(100%, 11.302185%, 71.742249%)" offset="0.648438"/><stop stop-opacity="1" stop-color="rgb(100%, 11.621094%, 70.944214%)" offset="0.652344"/><stop stop-opacity="1" stop-color="rgb(100%, 11.940002%, 70.147705%)" offset="0.65625"/><stop stop-opacity="1" stop-color="rgb(100%, 12.258911%, 69.34967%)" offset="0.660156"/><stop stop-opacity="1" stop-color="rgb(100%, 12.57782%, 68.553162%)" offset="0.664062"/><stop stop-opacity="1" stop-color="rgb(100%, 12.896729%, 67.755127%)" offset="0.667969"/><stop stop-opacity="1" stop-color="rgb(100%, 13.215637%, 66.958618%)" offset="0.671875"/><stop stop-opacity="1" stop-color="rgb(100%, 13.534546%, 66.160583%)" offset="0.675781"/><stop stop-opacity="1" stop-color="rgb(100%, 13.853455%, 65.364075%)" offset="0.679688"/><stop stop-opacity="1" stop-color="rgb(100%, 14.172363%, 64.56604%)" offset="0.683594"/><stop stop-opacity="1" stop-color="rgb(100%, 14.491272%, 63.769531%)" offset="0.6875"/><stop stop-opacity="1" stop-color="rgb(100%, 14.810181%, 62.971497%)" offset="0.691406"/><stop stop-opacity="1" stop-color="rgb(100%, 15.129089%, 62.174988%)" offset="0.695313"/><stop stop-opacity="1" stop-color="rgb(100%, 15.447998%, 61.376953%)" offset="0.699219"/><stop stop-opacity="1" stop-color="rgb(100%, 15.766907%, 60.580444%)" offset="0.703125"/><stop stop-opacity="1" stop-color="rgb(100%, 16.085815%, 59.78241%)" offset="0.707031"/><stop stop-opacity="1" stop-color="rgb(100%, 16.404724%, 58.985901%)" offset="0.710938"/><stop stop-opacity="1" stop-color="rgb(100%, 16.723633%, 58.187866%)" offset="0.714844"/><stop stop-opacity="1" stop-color="rgb(100%, 17.042542%, 57.391357%)" offset="0.71875"/><stop stop-opacity="1" stop-color="rgb(100%, 17.36145%, 56.593323%)" offset="0.722656"/><stop stop-opacity="1" stop-color="rgb(100%, 17.680359%, 55.796814%)" offset="0.726562"/><stop stop-opacity="1" stop-color="rgb(100%, 17.999268%, 54.998779%)" offset="0.730469"/><stop stop-opacity="1" stop-color="rgb(100%, 18.318176%, 54.202271%)" offset="0.734375"/><stop stop-opacity="1" stop-color="rgb(100%, 18.637085%, 53.404236%)" offset="0.738281"/><stop stop-opacity="1" stop-color="rgb(100%, 18.955994%, 52.607727%)" offset="0.742188"/><stop stop-opacity="1" stop-color="rgb(100%, 19.274902%, 51.809692%)" offset="0.746094"/><stop stop-opacity="1" stop-color="rgb(100%, 19.593811%, 51.013184%)" offset="0.75"/><stop stop-opacity="1" stop-color="rgb(100%, 19.91272%, 50.215149%)" offset="0.753906"/><stop stop-opacity="1" stop-color="rgb(100%, 20.231628%, 49.41864%)" offset="0.757813"/><stop stop-opacity="1" stop-color="rgb(100%, 20.550537%, 48.620605%)" offset="0.761719"/><stop stop-opacity="1" stop-color="rgb(100%, 20.869446%, 47.824097%)" offset="0.765625"/><stop stop-opacity="1" stop-color="rgb(100%, 21.188354%, 47.026062%)" offset="0.769531"/><stop stop-opacity="1" stop-color="rgb(100%, 21.507263%, 46.229553%)" offset="0.773438"/><stop stop-opacity="1" stop-color="rgb(100%, 21.826172%, 45.431519%)" offset="0.777344"/><stop stop-opacity="1" stop-color="rgb(100%, 22.145081%, 44.63501%)" offset="0.78125"/><stop stop-opacity="1" stop-color="rgb(100%, 22.463989%, 43.836975%)" offset="0.785156"/><stop stop-opacity="1" stop-color="rgb(100%, 22.782898%, 43.040466%)" offset="0.789062"/><stop stop-opacity="1" stop-color="rgb(100%, 23.101807%, 42.242432%)" offset="0.792969"/><stop stop-opacity="1" stop-color="rgb(100%, 23.420715%, 41.445923%)" offset="0.796875"/><stop stop-opacity="1" stop-color="rgb(100%, 23.739624%, 40.649414%)" offset="0.800781"/><stop stop-opacity="1" stop-color="rgb(100%, 24.058533%, 39.852905%)" offset="0.804688"/><stop stop-opacity="1" stop-color="rgb(100%, 24.377441%, 39.054871%)" offset="0.808594"/><stop stop-opacity="1" stop-color="rgb(100%, 24.69635%, 38.258362%)" offset="0.8125"/><stop stop-opacity="1" stop-color="rgb(100%, 25.015259%, 37.460327%)" offset="0.816406"/><stop stop-opacity="1" stop-color="rgb(100%, 25.334167%, 36.663818%)" offset="0.820313"/><stop stop-opacity="1" stop-color="rgb(100%, 25.653076%, 35.865784%)" offset="0.824219"/><stop stop-opacity="1" stop-color="rgb(100%, 25.971985%, 35.069275%)" offset="0.828125"/><stop stop-opacity="1" stop-color="rgb(100%, 26.290894%, 34.27124%)" offset="0.832031"/><stop stop-opacity="1" stop-color="rgb(100%, 26.609802%, 33.474731%)" offset="0.835938"/><stop stop-opacity="1" stop-color="rgb(100%, 26.928711%, 32.676697%)" offset="0.839844"/><stop stop-opacity="1" stop-color="rgb(100%, 27.24762%, 31.880188%)" offset="0.84375"/><stop stop-opacity="1" stop-color="rgb(100%, 27.566528%, 31.082153%)" offset="0.847656"/><stop stop-opacity="1" stop-color="rgb(100%, 27.885437%, 30.285645%)" offset="0.851562"/><stop stop-opacity="1" stop-color="rgb(100%, 28.204346%, 29.48761%)" offset="0.855469"/><stop stop-opacity="1" stop-color="rgb(100%, 28.523254%, 28.691101%)" offset="0.859375"/><stop stop-opacity="1" stop-color="rgb(100%, 28.842163%, 27.893066%)" offset="0.863281"/><stop stop-opacity="1" stop-color="rgb(100%, 29.161072%, 27.096558%)" offset="0.867188"/><stop stop-opacity="1" stop-color="rgb(100%, 29.47998%, 26.298523%)" offset="0.871094"/><stop stop-opacity="1" stop-color="rgb(100%, 29.798889%, 25.502014%)" offset="0.875"/><stop stop-opacity="1" stop-color="rgb(100%, 30.117798%, 24.703979%)" offset="0.878906"/><stop stop-opacity="1" stop-color="rgb(100%, 30.436707%, 23.907471%)" offset="0.882813"/><stop stop-opacity="1" stop-color="rgb(100%, 30.755615%, 23.109436%)" offset="0.886719"/><stop stop-opacity="1" stop-color="rgb(100%, 31.074524%, 22.312927%)" offset="0.890625"/><stop stop-opacity="1" stop-color="rgb(100%, 31.393433%, 21.514893%)" offset="0.894531"/><stop stop-opacity="1" stop-color="rgb(100%, 31.712341%, 20.718384%)" offset="0.898438"/><stop stop-opacity="1" stop-color="rgb(100%, 32.03125%, 19.920349%)" offset="0.902344"/><stop stop-opacity="1" stop-color="rgb(100%, 32.350159%, 19.12384%)" offset="0.90625"/><stop stop-opacity="1" stop-color="rgb(100%, 32.669067%, 18.325806%)" offset="0.910156"/><stop stop-opacity="1" stop-color="rgb(100%, 32.987976%, 17.529297%)" offset="0.914062"/><stop stop-opacity="1" stop-color="rgb(100%, 33.306885%, 16.731262%)" offset="0.917969"/><stop stop-opacity="1" stop-color="rgb(100%, 33.625793%, 15.934753%)" offset="0.921875"/><stop stop-opacity="1" stop-color="rgb(100%, 33.944702%, 15.136719%)" offset="0.925781"/><stop stop-opacity="1" stop-color="rgb(100%, 34.263611%, 14.34021%)" offset="0.929688"/><stop stop-opacity="1" stop-color="rgb(100%, 34.58252%, 13.542175%)" offset="0.933594"/><stop stop-opacity="1" stop-color="rgb(100%, 34.901428%, 12.745667%)" offset="0.9375"/><stop stop-opacity="1" stop-color="rgb(100%, 35.220337%, 11.947632%)" offset="0.941406"/><stop stop-opacity="1" stop-color="rgb(100%, 35.539246%, 11.151123%)" offset="0.945313"/><stop stop-opacity="1" stop-color="rgb(100%, 35.858154%, 10.353088%)" offset="0.949219"/><stop stop-opacity="1" stop-color="rgb(100%, 36.177063%, 9.55658%)" offset="0.953125"/><stop stop-opacity="1" stop-color="rgb(100%, 36.494446%, 8.758545%)" offset="0.957031"/><stop stop-opacity="1" stop-color="rgb(100%, 36.813354%, 7.962036%)" offset="0.960938"/><stop stop-opacity="1" stop-color="rgb(100%, 37.132263%, 7.164001%)" offset="0.964844"/><stop stop-opacity="1" stop-color="rgb(100%, 37.451172%, 6.367493%)" offset="0.96875"/><stop stop-opacity="1" stop-color="rgb(100%, 37.770081%, 5.569458%)" offset="0.972656"/><stop stop-opacity="1" stop-color="rgb(100%, 38.088989%, 4.772949%)" offset="0.976562"/><stop stop-opacity="1" stop-color="rgb(100%, 38.407898%, 3.974915%)" offset="0.980469"/><stop stop-opacity="1" stop-color="rgb(100%, 38.726807%, 3.178406%)" offset="0.984375"/><stop stop-opacity="1" stop-color="rgb(100%, 39.045715%, 2.380371%)" offset="0.988281"/><stop stop-opacity="1" stop-color="rgb(100%, 39.364624%, 1.583862%)" offset="0.992188"/><stop stop-opacity="1" stop-color="rgb(100%, 39.682007%, 0.791931%)" offset="0.996094"/><stop stop-opacity="1" stop-color="rgb(100%, 39.99939%, 0%)" offset="1"/></linearGradient><clipPath id="18c1bb4e36"><path d="M 0.476562 55 L 899.523438 55 L 899.523438 472 L 0.476562 472 Z M 0.476562 55 " clip-rule="nonzero"/></clipPath><clipPath id="bf00034813"><path d="M 0.476562 0.742188 L 899.523438 0.742188 L 899.523438 417 L 0.476562 417 Z M 0.476562 0.742188 " clip-rule="nonzero"/></clipPath><clipPath id="6058b79321"><path d="M 0.476562 0.742188 L 899.523438 0.742188 L 899.523438 417 L 0.476562 417 Z M 0.476562 0.742188 " clip-rule="nonzero"/></clipPath><clipPath id="a29089d913"><path d="M 0.476562 19.925781 L 899.523438 19.925781 L 899.523438 417 L 0.476562 417 Z M 0.476562 19.925781 " clip-rule="nonzero"/></clipPath><linearGradient x1="-16.917126" gradientTransform="matrix(4.798748, 0, 0, 4.795784, 81.656727, 230.939995)" y1="16" x2="170.433518" gradientUnits="userSpaceOnUse" y2="16" id="b0c2149060"><stop stop-opacity="1" stop-color="rgb(100%, 0%, 100%)" offset="0"/><stop stop-opacity="1" stop-color="rgb(100%, 0%, 100%)" offset="0.0625"/><stop stop-opacity="1" stop-color="rgb(100%, 0%, 100%)" offset="0.078125"/><stop stop-opacity="1" stop-color="rgb(100%, 0%, 100%)" offset="0.0859375"/><stop stop-opacity="1" stop-color="rgb(99.79248%, 0.062561%, 100%)" offset="0.0898437"/><stop stop-opacity="1" stop-color="rgb(99.586487%, 0.125122%, 100%)" offset="0.09375"/><stop stop-opacity="1" stop-color="rgb(99.119568%, 0.267029%, 100%)" offset="0.0976562"/><stop stop-opacity="1" stop-color="rgb(98.654175%, 0.410461%, 100%)" offset="0.101562"/><stop stop-opacity="1" stop-color="rgb(98.187256%, 0.552368%, 100%)" offset="0.105469"/><stop stop-opacity="1" stop-color="rgb(97.720337%, 0.695801%, 100%)" offset="0.109375"/><stop stop-opacity="1" stop-color="rgb(97.253418%, 0.837708%, 100%)" offset="0.113281"/><stop stop-opacity="1" stop-color="rgb(96.786499%, 0.98114%, 100%)" offset="0.117187"/><stop stop-opacity="1" stop-color="rgb(96.31958%, 1.124573%, 100%)" offset="0.121094"/><stop stop-opacity="1" stop-color="rgb(95.854187%, 1.268005%, 100%)" offset="0.125"/><stop stop-opacity="1" stop-color="rgb(95.387268%, 1.409912%, 100%)" offset="0.128906"/><stop stop-opacity="1" stop-color="rgb(94.920349%, 1.553345%, 100%)" offset="0.132812"/><stop stop-opacity="1" stop-color="rgb(94.45343%, 1.695251%, 100%)" offset="0.136719"/><stop stop-opacity="1" stop-color="rgb(93.988037%, 1.838684%, 100%)" offset="0.140625"/><stop stop-opacity="1" stop-color="rgb(93.521118%, 1.980591%, 100%)" offset="0.144531"/><stop stop-opacity="1" stop-color="rgb(93.054199%, 2.124023%, 100%)" offset="0.148437"/><stop stop-opacity="1" stop-color="rgb(92.58728%, 2.26593%, 100%)" offset="0.152344"/><stop stop-opacity="1" stop-color="rgb(92.120361%, 2.409363%, 100%)" offset="0.15625"/><stop stop-opacity="1" stop-color="rgb(91.653442%, 2.55127%, 100%)" offset="0.160156"/><stop stop-opacity="1" stop-color="rgb(91.188049%, 2.694702%, 100%)" offset="0.164062"/><stop stop-opacity="1" stop-color="rgb(90.72113%, 2.836609%, 100%)" offset="0.167969"/><stop stop-opacity="1" stop-color="rgb(90.254211%, 2.980042%, 100%)" offset="0.171875"/><stop stop-opacity="1" stop-color="rgb(89.787292%, 3.121948%, 100%)" offset="0.175781"/><stop stop-opacity="1" stop-color="rgb(89.321899%, 3.265381%, 100%)" offset="0.179687"/><stop stop-opacity="1" stop-color="rgb(88.85498%, 3.407288%, 100%)" offset="0.183594"/><stop stop-opacity="1" stop-color="rgb(88.388062%, 3.55072%, 100%)" offset="0.1875"/><stop stop-opacity="1" stop-color="rgb(87.921143%, 3.692627%, 100%)" offset="0.191406"/><stop stop-opacity="1" stop-color="rgb(87.45575%, 3.83606%, 100%)" offset="0.195312"/><stop stop-opacity="1" stop-color="rgb(86.988831%, 3.977966%, 100%)" offset="0.199219"/><stop stop-opacity="1" stop-color="rgb(86.521912%, 4.121399%, 100%)" offset="0.203125"/><stop stop-opacity="1" stop-color="rgb(86.054993%, 4.263306%, 100%)" offset="0.207031"/><stop stop-opacity="1" stop-color="rgb(85.588074%, 4.406738%, 100%)" offset="0.210937"/><stop stop-opacity="1" stop-color="rgb(85.121155%, 4.550171%, 100%)" offset="0.214844"/><stop stop-opacity="1" stop-color="rgb(84.655762%, 4.693604%, 100%)" offset="0.21875"/><stop stop-opacity="1" stop-color="rgb(84.188843%, 4.83551%, 100%)" offset="0.222656"/><stop stop-opacity="1" stop-color="rgb(83.721924%, 4.978943%, 100%)" offset="0.226562"/><stop stop-opacity="1" stop-color="rgb(83.255005%, 5.12085%, 100%)" offset="0.230469"/><stop stop-opacity="1" stop-color="rgb(82.789612%, 5.264282%, 100%)" offset="0.234375"/><stop stop-opacity="1" stop-color="rgb(82.322693%, 5.406189%, 100%)" offset="0.238281"/><stop stop-opacity="1" stop-color="rgb(81.855774%, 5.549622%, 100%)" offset="0.242187"/><stop stop-opacity="1" stop-color="rgb(81.388855%, 5.691528%, 100%)" offset="0.246094"/><stop stop-opacity="1" stop-color="rgb(80.921936%, 5.834961%, 100%)" offset="0.25"/><stop stop-opacity="1" stop-color="rgb(80.455017%, 5.976868%, 100%)" offset="0.253906"/><stop stop-opacity="1" stop-color="rgb(79.989624%, 6.1203%, 100%)" offset="0.257812"/><stop stop-opacity="1" stop-color="rgb(79.522705%, 6.262207%, 100%)" offset="0.261719"/><stop stop-opacity="1" stop-color="rgb(79.055786%, 6.40564%, 100%)" offset="0.265625"/><stop stop-opacity="1" stop-color="rgb(78.588867%, 6.547546%, 100%)" offset="0.269531"/><stop stop-opacity="1" stop-color="rgb(78.123474%, 6.690979%, 100%)" offset="0.273438"/><stop stop-opacity="1" stop-color="rgb(77.656555%, 6.832886%, 100%)" offset="0.277344"/><stop stop-opacity="1" stop-color="rgb(77.189636%, 6.976318%, 100%)" offset="0.28125"/><stop stop-opacity="1" stop-color="rgb(76.722717%, 7.118225%, 100%)" offset="0.285156"/><stop stop-opacity="1" stop-color="rgb(76.257324%, 7.261658%, 100%)" offset="0.289062"/><stop stop-opacity="1" stop-color="rgb(75.790405%, 7.403564%, 100%)" offset="0.292969"/><stop stop-opacity="1" stop-color="rgb(75.323486%, 7.546997%, 100%)" offset="0.296875"/><stop stop-opacity="1" stop-color="rgb(74.856567%, 7.688904%, 100%)" offset="0.300781"/><stop stop-opacity="1" stop-color="rgb(74.389648%, 7.832336%, 100%)" offset="0.304687"/><stop stop-opacity="1" stop-color="rgb(73.922729%, 7.975769%, 100%)" offset="0.308594"/><stop stop-opacity="1" stop-color="rgb(73.457336%, 8.119202%, 100%)" offset="0.3125"/><stop stop-opacity="1" stop-color="rgb(72.990417%, 8.261108%, 100%)" offset="0.316406"/><stop stop-opacity="1" stop-color="rgb(72.523499%, 8.404541%, 100%)" offset="0.320312"/><stop stop-opacity="1" stop-color="rgb(72.05658%, 8.546448%, 100%)" offset="0.324219"/><stop stop-opacity="1" stop-color="rgb(71.591187%, 8.68988%, 100%)" offset="0.328125"/><stop stop-opacity="1" stop-color="rgb(71.124268%, 8.831787%, 100%)" offset="0.332031"/><stop stop-opacity="1" stop-color="rgb(70.657349%, 8.97522%, 100%)" offset="0.335937"/><stop stop-opacity="1" stop-color="rgb(70.19043%, 9.117126%, 100%)" offset="0.339844"/><stop stop-opacity="1" stop-color="rgb(69.723511%, 9.260559%, 100%)" offset="0.34375"/><stop stop-opacity="1" stop-color="rgb(69.256592%, 9.402466%, 100%)" offset="0.347656"/><stop stop-opacity="1" stop-color="rgb(68.791199%, 9.545898%, 100%)" offset="0.351562"/><stop stop-opacity="1" stop-color="rgb(68.32428%, 9.687805%, 100%)" offset="0.355469"/><stop stop-opacity="1" stop-color="rgb(67.857361%, 9.831238%, 100%)" offset="0.359375"/><stop stop-opacity="1" stop-color="rgb(67.390442%, 9.973145%, 100%)" offset="0.363281"/><stop stop-opacity="1" stop-color="rgb(66.925049%, 10.116577%, 100%)" offset="0.367187"/><stop stop-opacity="1" stop-color="rgb(66.45813%, 10.258484%, 100%)" offset="0.371094"/><stop stop-opacity="1" stop-color="rgb(65.991211%, 10.401917%, 100%)" offset="0.375"/><stop stop-opacity="1" stop-color="rgb(65.524292%, 10.543823%, 100%)" offset="0.378906"/><stop stop-opacity="1" stop-color="rgb(65.057373%, 10.687256%, 100%)" offset="0.382812"/><stop stop-opacity="1" stop-color="rgb(64.590454%, 10.829163%, 100%)" offset="0.386719"/><stop stop-opacity="1" stop-color="rgb(64.125061%, 10.972595%, 100%)" offset="0.390625"/><stop stop-opacity="1" stop-color="rgb(63.658142%, 11.114502%, 100%)" offset="0.394531"/><stop stop-opacity="1" stop-color="rgb(63.191223%, 11.257935%, 100%)" offset="0.398438"/><stop stop-opacity="1" stop-color="rgb(62.724304%, 11.401367%, 100%)" offset="0.402344"/><stop stop-opacity="1" stop-color="rgb(62.258911%, 11.5448%, 100%)" offset="0.40625"/><stop stop-opacity="1" stop-color="rgb(61.791992%, 11.686707%, 100%)" offset="0.410156"/><stop stop-opacity="1" stop-color="rgb(61.325073%, 11.830139%, 100%)" offset="0.414062"/><stop stop-opacity="1" stop-color="rgb(60.858154%, 11.972046%, 100%)" offset="0.417969"/><stop stop-opacity="1" stop-color="rgb(60.392761%, 12.115479%, 100%)" offset="0.421875"/><stop stop-opacity="1" stop-color="rgb(59.925842%, 12.257385%, 100%)" offset="0.425781"/><stop stop-opacity="1" stop-color="rgb(59.458923%, 12.400818%, 100%)" offset="0.429687"/><stop stop-opacity="1" stop-color="rgb(58.992004%, 12.542725%, 100%)" offset="0.433594"/><stop stop-opacity="1" stop-color="rgb(58.525085%, 12.686157%, 100%)" offset="0.4375"/><stop stop-opacity="1" stop-color="rgb(58.058167%, 12.828064%, 100%)" offset="0.441406"/><stop stop-opacity="1" stop-color="rgb(57.592773%, 12.971497%, 100%)" offset="0.445312"/><stop stop-opacity="1" stop-color="rgb(57.125854%, 13.113403%, 100%)" offset="0.449219"/><stop stop-opacity="1" stop-color="rgb(56.658936%, 13.256836%, 100%)" offset="0.453125"/><stop stop-opacity="1" stop-color="rgb(56.192017%, 13.398743%, 100%)" offset="0.457031"/><stop stop-opacity="1" stop-color="rgb(55.726624%, 13.542175%, 100%)" offset="0.460937"/><stop stop-opacity="1" stop-color="rgb(55.259705%, 13.684082%, 100%)" offset="0.464844"/><stop stop-opacity="1" stop-color="rgb(54.792786%, 13.827515%, 100%)" offset="0.46875"/><stop stop-opacity="1" stop-color="rgb(54.325867%, 13.969421%, 100%)" offset="0.472656"/><stop stop-opacity="1" stop-color="rgb(53.858948%, 14.112854%, 100%)" offset="0.476562"/><stop stop-opacity="1" stop-color="rgb(53.392029%, 14.254761%, 100%)" offset="0.480469"/><stop stop-opacity="1" stop-color="rgb(52.926636%, 14.398193%, 100%)" offset="0.484375"/><stop stop-opacity="1" stop-color="rgb(52.459717%, 14.5401%, 100%)" offset="0.488281"/><stop stop-opacity="1" stop-color="rgb(51.992798%, 14.683533%, 100%)" offset="0.492187"/><stop stop-opacity="1" stop-color="rgb(51.525879%, 14.826965%, 100%)" offset="0.496094"/><stop stop-opacity="1" stop-color="rgb(51.060486%, 14.970398%, 100%)" offset="0.5"/><stop stop-opacity="1" stop-color="rgb(50.593567%, 15.112305%, 100%)" offset="0.503906"/><stop stop-opacity="1" stop-color="rgb(50.126648%, 15.255737%, 100%)" offset="0.507812"/><stop stop-opacity="1" stop-color="rgb(49.659729%, 15.397644%, 100%)" offset="0.511719"/><stop stop-opacity="1" stop-color="rgb(49.194336%, 15.541077%, 100%)" offset="0.515625"/><stop stop-opacity="1" stop-color="rgb(48.727417%, 15.682983%, 100%)" offset="0.519531"/><stop stop-opacity="1" stop-color="rgb(48.260498%, 15.826416%, 100%)" offset="0.523438"/><stop stop-opacity="1" stop-color="rgb(47.793579%, 15.968323%, 100%)" offset="0.527344"/><stop stop-opacity="1" stop-color="rgb(47.32666%, 16.111755%, 100%)" offset="0.53125"/><stop stop-opacity="1" stop-color="rgb(46.859741%, 16.253662%, 100%)" offset="0.535156"/><stop stop-opacity="1" stop-color="rgb(46.394348%, 16.397095%, 100%)" offset="0.539062"/><stop stop-opacity="1" stop-color="rgb(45.927429%, 16.539001%, 100%)" offset="0.542969"/><stop stop-opacity="1" stop-color="rgb(45.46051%, 16.682434%, 100%)" offset="0.546875"/><stop stop-opacity="1" stop-color="rgb(44.993591%, 16.824341%, 100%)" offset="0.550781"/><stop stop-opacity="1" stop-color="rgb(44.528198%, 16.967773%, 100%)" offset="0.554688"/><stop stop-opacity="1" stop-color="rgb(44.061279%, 17.10968%, 100%)" offset="0.558594"/><stop stop-opacity="1" stop-color="rgb(43.59436%, 17.253113%, 100%)" offset="0.5625"/><stop stop-opacity="1" stop-color="rgb(43.127441%, 17.39502%, 100%)" offset="0.566406"/><stop stop-opacity="1" stop-color="rgb(42.660522%, 17.538452%, 100%)" offset="0.570312"/><stop stop-opacity="1" stop-color="rgb(42.193604%, 17.680359%, 100%)" offset="0.574219"/><stop stop-opacity="1" stop-color="rgb(41.72821%, 17.823792%, 100%)" offset="0.578125"/><stop stop-opacity="1" stop-color="rgb(41.261292%, 17.965698%, 100%)" offset="0.582031"/><stop stop-opacity="1" stop-color="rgb(40.794373%, 18.109131%, 100%)" offset="0.585937"/><stop stop-opacity="1" stop-color="rgb(40.327454%, 18.252563%, 100%)" offset="0.589844"/><stop stop-opacity="1" stop-color="rgb(39.862061%, 18.395996%, 100%)" offset="0.59375"/><stop stop-opacity="1" stop-color="rgb(39.395142%, 18.537903%, 100%)" offset="0.597656"/><stop stop-opacity="1" stop-color="rgb(38.928223%, 18.681335%, 100%)" offset="0.601562"/><stop stop-opacity="1" stop-color="rgb(38.461304%, 18.823242%, 100%)" offset="0.605469"/><stop stop-opacity="1" stop-color="rgb(37.995911%, 18.966675%, 100%)" offset="0.609375"/><stop stop-opacity="1" stop-color="rgb(37.528992%, 19.108582%, 100%)" offset="0.613281"/><stop stop-opacity="1" stop-color="rgb(37.062073%, 19.252014%, 100%)" offset="0.617187"/><stop stop-opacity="1" stop-color="rgb(36.595154%, 19.393921%, 100%)" offset="0.621094"/><stop stop-opacity="1" stop-color="rgb(36.128235%, 19.537354%, 100%)" offset="0.625"/><stop stop-opacity="1" stop-color="rgb(35.661316%, 19.67926%, 100%)" offset="0.628906"/><stop stop-opacity="1" stop-color="rgb(35.195923%, 19.822693%, 100%)" offset="0.632812"/><stop stop-opacity="1" stop-color="rgb(34.729004%, 19.9646%, 100%)" offset="0.636719"/><stop stop-opacity="1" stop-color="rgb(34.262085%, 20.108032%, 100%)" offset="0.640625"/><stop stop-opacity="1" stop-color="rgb(33.795166%, 20.249939%, 100%)" offset="0.644531"/><stop stop-opacity="1" stop-color="rgb(33.329773%, 20.393372%, 100%)" offset="0.648438"/><stop stop-opacity="1" stop-color="rgb(32.862854%, 20.535278%, 100%)" offset="0.652344"/><stop stop-opacity="1" stop-color="rgb(32.395935%, 20.678711%, 100%)" offset="0.65625"/><stop stop-opacity="1" stop-color="rgb(31.929016%, 20.820618%, 100%)" offset="0.660156"/><stop stop-opacity="1" stop-color="rgb(31.462097%, 20.96405%, 100%)" offset="0.664062"/><stop stop-opacity="1" stop-color="rgb(30.995178%, 21.105957%, 100%)" offset="0.667969"/><stop stop-opacity="1" stop-color="rgb(30.529785%, 21.24939%, 100%)" offset="0.671875"/><stop stop-opacity="1" stop-color="rgb(30.062866%, 21.392822%, 100%)" offset="0.675781"/><stop stop-opacity="1" stop-color="rgb(29.595947%, 21.536255%, 100%)" offset="0.679688"/><stop stop-opacity="1" stop-color="rgb(29.129028%, 21.678162%, 100%)" offset="0.683594"/><stop stop-opacity="1" stop-color="rgb(28.663635%, 21.821594%, 100%)" offset="0.6875"/><stop stop-opacity="1" stop-color="rgb(28.196716%, 21.963501%, 100%)" offset="0.691406"/><stop stop-opacity="1" stop-color="rgb(27.729797%, 22.106934%, 100%)" offset="0.695312"/><stop stop-opacity="1" stop-color="rgb(27.262878%, 22.24884%, 100%)" offset="0.699219"/><stop stop-opacity="1" stop-color="rgb(26.795959%, 22.392273%, 100%)" offset="0.703125"/><stop stop-opacity="1" stop-color="rgb(26.329041%, 22.53418%, 100%)" offset="0.707031"/><stop stop-opacity="1" stop-color="rgb(25.863647%, 22.677612%, 100%)" offset="0.710937"/><stop stop-opacity="1" stop-color="rgb(25.396729%, 22.819519%, 100%)" offset="0.714844"/><stop stop-opacity="1" stop-color="rgb(24.92981%, 22.962952%, 100%)" offset="0.71875"/><stop stop-opacity="1" stop-color="rgb(24.462891%, 23.104858%, 100%)" offset="0.722656"/><stop stop-opacity="1" stop-color="rgb(23.997498%, 23.248291%, 100%)" offset="0.726562"/><stop stop-opacity="1" stop-color="rgb(23.530579%, 23.390198%, 100%)" offset="0.730469"/><stop stop-opacity="1" stop-color="rgb(23.06366%, 23.53363%, 100%)" offset="0.734375"/><stop stop-opacity="1" stop-color="rgb(22.596741%, 23.675537%, 100%)" offset="0.738281"/><stop stop-opacity="1" stop-color="rgb(22.131348%, 23.81897%, 100%)" offset="0.742187"/><stop stop-opacity="1" stop-color="rgb(21.664429%, 23.960876%, 100%)" offset="0.746094"/><stop stop-opacity="1" stop-color="rgb(21.19751%, 24.104309%, 100%)" offset="0.75"/><stop stop-opacity="1" stop-color="rgb(20.730591%, 24.246216%, 100%)" offset="0.753906"/><stop stop-opacity="1" stop-color="rgb(20.263672%, 24.389648%, 100%)" offset="0.757812"/><stop stop-opacity="1" stop-color="rgb(19.796753%, 24.531555%, 100%)" offset="0.761719"/><stop stop-opacity="1" stop-color="rgb(19.33136%, 24.674988%, 100%)" offset="0.765625"/><stop stop-opacity="1" stop-color="rgb(18.864441%, 24.81842%, 100%)" offset="0.769531"/><stop stop-opacity="1" stop-color="rgb(18.397522%, 24.961853%, 100%)" offset="0.773437"/><stop stop-opacity="1" stop-color="rgb(17.930603%, 25.10376%, 100%)" offset="0.777344"/><stop stop-opacity="1" stop-color="rgb(17.46521%, 25.247192%, 100%)" offset="0.78125"/><stop stop-opacity="1" stop-color="rgb(16.998291%, 25.389099%, 100%)" offset="0.785156"/><stop stop-opacity="1" stop-color="rgb(16.531372%, 25.532532%, 100%)" offset="0.789062"/><stop stop-opacity="1" stop-color="rgb(16.064453%, 25.674438%, 100%)" offset="0.792969"/><stop stop-opacity="1" stop-color="rgb(15.597534%, 25.817871%, 100%)" offset="0.796875"/><stop stop-opacity="1" stop-color="rgb(15.130615%, 25.959778%, 100%)" offset="0.800781"/><stop stop-opacity="1" stop-color="rgb(14.665222%, 26.10321%, 100%)" offset="0.804687"/><stop stop-opacity="1" stop-color="rgb(14.198303%, 26.245117%, 100%)" offset="0.808594"/><stop stop-opacity="1" stop-color="rgb(13.731384%, 26.38855%, 100%)" offset="0.8125"/><stop stop-opacity="1" stop-color="rgb(13.264465%, 26.530457%, 100%)" offset="0.816406"/><stop stop-opacity="1" stop-color="rgb(12.799072%, 26.673889%, 100%)" offset="0.820312"/><stop stop-opacity="1" stop-color="rgb(12.332153%, 26.815796%, 100%)" offset="0.824219"/><stop stop-opacity="1" stop-color="rgb(11.865234%, 26.959229%, 100%)" offset="0.828125"/><stop stop-opacity="1" stop-color="rgb(11.398315%, 27.101135%, 100%)" offset="0.832031"/><stop stop-opacity="1" stop-color="rgb(10.932922%, 27.244568%, 100%)" offset="0.835937"/><stop stop-opacity="1" stop-color="rgb(10.466003%, 27.386475%, 100%)" offset="0.839844"/><stop stop-opacity="1" stop-color="rgb(9.999084%, 27.529907%, 100%)" offset="0.84375"/><stop stop-opacity="1" stop-color="rgb(9.532166%, 27.671814%, 100%)" offset="0.847656"/><stop stop-opacity="1" stop-color="rgb(9.065247%, 27.815247%, 100%)" offset="0.851562"/><stop stop-opacity="1" stop-color="rgb(8.598328%, 27.957153%, 100%)" offset="0.855469"/><stop stop-opacity="1" stop-color="rgb(8.132935%, 28.100586%, 100%)" offset="0.859375"/><stop stop-opacity="1" stop-color="rgb(7.666016%, 28.244019%, 100%)" offset="0.863281"/><stop stop-opacity="1" stop-color="rgb(7.199097%, 28.387451%, 100%)" offset="0.867187"/><stop stop-opacity="1" stop-color="rgb(6.732178%, 28.529358%, 100%)" offset="0.871094"/><stop stop-opacity="1" stop-color="rgb(6.266785%, 28.672791%, 100%)" offset="0.875"/><stop stop-opacity="1" stop-color="rgb(5.799866%, 28.814697%, 100%)" offset="0.878906"/><stop stop-opacity="1" stop-color="rgb(5.332947%, 28.95813%, 100%)" offset="0.882812"/><stop stop-opacity="1" stop-color="rgb(4.866028%, 29.100037%, 100%)" offset="0.886719"/><stop stop-opacity="1" stop-color="rgb(4.399109%, 29.243469%, 100%)" offset="0.890625"/><stop stop-opacity="1" stop-color="rgb(3.93219%, 29.385376%, 100%)" offset="0.894531"/><stop stop-opacity="1" stop-color="rgb(3.466797%, 29.528809%, 100%)" offset="0.898437"/><stop stop-opacity="1" stop-color="rgb(2.999878%, 29.670715%, 100%)" offset="0.902344"/><stop stop-opacity="1" stop-color="rgb(2.532959%, 29.814148%, 100%)" offset="0.90625"/><stop stop-opacity="1" stop-color="rgb(2.06604%, 29.956055%, 100%)" offset="0.910156"/><stop stop-opacity="1" stop-color="rgb(1.600647%, 30.099487%, 100%)" offset="0.914062"/><stop stop-opacity="1" stop-color="rgb(1.133728%, 30.241394%, 100%)" offset="0.917969"/><stop stop-opacity="1" stop-color="rgb(0.666809%, 30.384827%, 100%)" offset="0.921875"/><stop stop-opacity="1" stop-color="rgb(0.332642%, 30.487061%, 100%)" offset="0.925781"/><stop stop-opacity="1" stop-color="rgb(0%, 30.589294%, 100%)" offset="0.929687"/><stop stop-opacity="1" stop-color="rgb(0%, 30.589294%, 100%)" offset="0.9375"/><stop stop-opacity="1" stop-color="rgb(0%, 30.589294%, 100%)" offset="1"/></linearGradient><clipPath id="ccd146d03e"><rect x="0" width="900" y="0" height="417"/></clipPath><clipPath id="15c0624ae4"><path d="M 0.476562 0.742188 L 899.523438 0.742188 L 899.523438 417 L 0.476562 417 Z M 0.476562 0.742188 " clip-rule="nonzero"/></clipPath><clipPath id="1bbe91b6ab"><rect x="0" width="900" y="0" height="417"/></clipPath><clipPath id="0e50086f15"><rect x="0" width="900" y="0" height="417"/></clipPath><mask id="9cfb32b09f"><g filter="url(#c2a581edf3)"><g transform="matrix(1, 0, 0, 1, 0, -0.000000000000014211)"><g clip-path="url(#0e50086f15)"><g clip-path="url(#15c0624ae4)"><g transform="matrix(1, 0, 0, 1, 0, -0.000000000000014211)"><g clip-path="url(#1bbe91b6ab)"><g fill="#000000" fill-opacity="1"><g transform="translate(81.514687, 322.059897)"><g><path d="M 54.671875 -52.25 C 54.671875 -51.488281 54.613281 -50.4375 54.5 -49.09375 C 54.382812 -47.75 54.25 -46.382812 54.09375 -45 C 53.9375 -43.625 53.800781 -42.453125 53.6875 -41.484375 C 53.570312 -40.523438 53.515625 -40.046875 53.515625 -40.046875 C 53.515625 -40.046875 53.59375 -39.375 53.75 -38.03125 C 53.90625 -36.695312 54.054688 -35.125 54.203125 -33.3125 C 54.359375 -31.507812 54.4375 -29.957031 54.4375 -28.65625 C 54.4375 -24.894531 54.207031 -21.882812 53.75 -19.625 C 53.289062 -17.363281 53.0625 -15.691406 53.0625 -14.609375 L 52.828125 -3.109375 L 52.484375 1.84375 L 50.53125 3.90625 C 50.53125 3.90625 50.375 4.25 50.0625 4.9375 C 49.757812 5.632812 49.378906 5.984375 48.921875 5.984375 C 48.304688 5.984375 47.613281 5.789062 46.84375 5.40625 C 46.070312 5.019531 45.613281 4.445312 45.46875 3.6875 L 44.546875 -1.84375 C 44.546875 -1.84375 44.410156 -2.128906 44.140625 -2.703125 C 43.867188 -3.273438 43.539062 -3.847656 43.15625 -4.421875 C 42.769531 -5.003906 42.390625 -5.296875 42.015625 -5.296875 C 41.472656 -5.296875 40.507812 -5.046875 39.125 -4.546875 C 37.75 -4.046875 36.082031 -3.546875 34.125 -3.046875 C 32.164062 -2.546875 30.035156 -2.296875 27.734375 -2.296875 C 24.359375 -2.296875 21.347656 -3.140625 18.703125 -4.828125 C 16.054688 -6.515625 13.984375 -8.738281 12.484375 -11.5 C 10.992188 -14.269531 10.25 -17.226562 10.25 -20.375 C 10.25 -21.132812 10.320312 -22.128906 10.46875 -23.359375 C 10.625 -24.585938 10.796875 -25.71875 10.984375 -26.75 C 11.179688 -27.789062 11.28125 -28.3125 11.28125 -28.3125 L 13.8125 -34.1875 L 16.453125 -36.375 C 16.453125 -36.375 16.796875 -36.738281 17.484375 -37.46875 C 18.179688 -38.195312 19.046875 -39.039062 20.078125 -40 C 21.117188 -40.957031 22.097656 -41.742188 23.015625 -42.359375 C 25.316406 -43.816406 27.40625 -44.867188 29.28125 -45.515625 C 31.164062 -46.171875 33.453125 -46.5 36.140625 -46.5 L 41.4375 -46.5 L 45.6875 -44.890625 C 46 -44.734375 46.269531 -44.65625 46.5 -44.65625 C 47.726562 -44.65625 48.34375 -45.535156 48.34375 -47.296875 C 48.34375 -47.609375 48.359375 -47.835938 48.390625 -47.984375 C 48.429688 -48.140625 48.453125 -48.375 48.453125 -48.6875 C 48.453125 -49.070312 48.410156 -49.550781 48.328125 -50.125 C 48.253906 -50.695312 48.066406 -51.597656 47.765625 -52.828125 L 47.078125 -56.859375 L 47.1875 -62.953125 C 47.1875 -62.953125 47.1875 -62.992188 47.1875 -63.078125 C 47.1875 -63.453125 47.222656 -64.503906 47.296875 -66.234375 C 47.378906 -67.960938 47.550781 -69.878906 47.8125 -71.984375 C 48.082031 -74.097656 48.546875 -75.941406 49.203125 -77.515625 C 49.859375 -79.085938 50.757812 -79.875 51.90625 -79.875 C 52.90625 -79.875 53.554688 -79.523438 53.859375 -78.828125 C 54.171875 -78.140625 54.328125 -77.375 54.328125 -76.53125 C 54.328125 -75.613281 54.226562 -74.710938 54.03125 -73.828125 C 53.84375 -72.953125 53.75 -72.359375 53.75 -72.046875 C 53.75 -70.128906 53.898438 -67.632812 54.203125 -64.5625 C 54.515625 -61.5 54.671875 -57.394531 54.671875 -52.25 Z M 47.1875 -30.15625 C 47.113281 -31 46.632812 -31.820312 45.75 -32.625 C 44.863281 -33.4375 44.421875 -33.84375 44.421875 -33.84375 L 42.015625 -37.515625 C 42.015625 -37.515625 41.609375 -37.59375 40.796875 -37.75 C 39.992188 -37.90625 39.070312 -38.039062 38.03125 -38.15625 C 37 -38.269531 36.097656 -38.328125 35.328125 -38.328125 C 32.179688 -38.328125 29.226562 -37.441406 26.46875 -35.671875 C 23.707031 -33.910156 21.460938 -31.707031 19.734375 -29.0625 C 18.015625 -26.414062 17.15625 -23.671875 17.15625 -20.828125 C 17.15625 -17.535156 18.207031 -14.8125 20.3125 -12.65625 C 22.425781 -10.507812 25.128906 -9.4375 28.421875 -9.4375 C 30.421875 -9.4375 32.378906 -9.703125 34.296875 -10.234375 C 36.210938 -10.773438 38.128906 -12.003906 40.046875 -13.921875 C 41.117188 -14.765625 41.769531 -15.644531 42 -16.5625 C 42.238281 -17.488281 42.359375 -17.953125 42.359375 -17.953125 L 44.3125 -21.875 L 44.546875 -24.28125 L 46.375 -27.046875 C 46.375 -27.046875 46.507812 -27.390625 46.78125 -28.078125 C 47.050781 -28.773438 47.1875 -29.390625 47.1875 -29.921875 C 47.1875 -30.003906 47.1875 -30.046875 47.1875 -30.046875 C 47.1875 -30.046875 47.1875 -30.082031 47.1875 -30.15625 Z M 47.1875 -30.15625 "/></g></g></g><g fill="#000000" fill-opacity="1"><g transform="translate(148.38695, 322.059897)"><g><path d="M 25.546875 -47.421875 L 24.625 -41.4375 L 25.328125 -28.203125 L 24.75 -25.546875 C 24.75 -25.546875 24.554688 -24.738281 24.171875 -23.125 C 23.785156 -21.519531 23.59375 -20.023438 23.59375 -18.640625 C 23.59375 -17.648438 23.664062 -16.554688 23.8125 -15.359375 C 23.96875 -14.171875 24.140625 -13.132812 24.328125 -12.25 C 24.523438 -11.375 24.625 -10.9375 24.625 -10.9375 L 24.046875 -8.515625 C 23.742188 -7.367188 23.226562 -6.351562 22.5 -5.46875 C 21.769531 -4.582031 20.945312 -4.140625 20.03125 -4.140625 C 18.875 -4.140625 18.101562 -4.519531 17.71875 -5.28125 C 17.34375 -6.050781 17.15625 -7.207031 17.15625 -8.75 C 17.15625 -9.132812 17.269531 -9.785156 17.5 -10.703125 C 17.726562 -11.617188 17.84375 -12.5 17.84375 -13.34375 L 17.5 -20.828125 C 17.5 -20.828125 17.441406 -21.457031 17.328125 -22.71875 C 17.210938 -23.988281 17.09375 -25.617188 16.96875 -27.609375 C 16.851562 -29.609375 16.796875 -31.644531 16.796875 -33.71875 C 16.796875 -35.632812 16.875 -37.457031 17.03125 -39.1875 C 17.1875 -40.914062 17.457031 -42.316406 17.84375 -43.390625 L 18.875 -46.5 L 20.03125 -49.828125 C 20.257812 -50.441406 20.679688 -51 21.296875 -51.5 C 21.910156 -52 22.484375 -52.25 23.015625 -52.25 C 23.941406 -52.25 24.5 -51.75 24.6875 -50.75 C 24.875 -49.757812 24.96875 -49.265625 24.96875 -49.265625 Z M 24.625 -74 C 24.625 -71.851562 24.101562 -70.050781 23.0625 -68.59375 C 22.03125 -67.132812 20.941406 -66.367188 19.796875 -66.296875 C 19.722656 -66.296875 19.644531 -66.296875 19.5625 -66.296875 C 19.488281 -66.296875 19.375 -66.296875 19.21875 -66.296875 C 18.445312 -66.296875 17.734375 -66.390625 17.078125 -66.578125 C 16.429688 -66.773438 15.992188 -67.101562 15.765625 -67.5625 L 14.390625 -69.859375 L 14.96875 -73.078125 L 17.71875 -75.84375 L 19.21875 -78.15625 L 21.640625 -77.921875 C 22.640625 -77.765625 23.382812 -77.398438 23.875 -76.828125 C 24.375 -76.253906 24.625 -75.3125 24.625 -74 Z M 24.625 -74 "/></g></g></g><g fill="#000000" fill-opacity="1"><g transform="translate(188.326148, 322.059897)"><g><path d="M 49.71875 -12.65625 C 49.71875 -12.65625 49.695312 -12.019531 49.65625 -10.75 C 49.625 -9.488281 49.507812 -8.1875 49.3125 -6.84375 C 49.125 -5.5 48.800781 -4.710938 48.34375 -4.484375 C 47.882812 -4.335938 47.5 -4.265625 47.1875 -4.265625 C 46.644531 -4.265625 46.179688 -4.320312 45.796875 -4.4375 C 45.421875 -4.550781 45.234375 -4.609375 45.234375 -4.609375 L 40.625 -8.0625 L 31.421875 -6.09375 C 29.648438 -5.71875 27.941406 -5.453125 26.296875 -5.296875 C 24.648438 -5.140625 23.132812 -5.0625 21.75 -5.0625 C 19.601562 -5.0625 17.9375 -5.828125 16.75 -7.359375 C 15.5625 -8.898438 14.3125 -10.515625 13 -12.203125 C 11.851562 -13.660156 10.875 -15.132812 10.0625 -16.625 C 9.257812 -18.125 8.859375 -19.375 8.859375 -20.375 C 8.859375 -23.0625 9.242188 -25.570312 10.015625 -27.90625 C 10.785156 -30.25 11.664062 -32.335938 12.65625 -34.171875 C 13.65625 -36.015625 14.535156 -37.453125 15.296875 -38.484375 C 16.066406 -39.523438 16.453125 -40.046875 16.453125 -40.046875 L 19.21875 -44.203125 L 21.296875 -45.109375 C 21.296875 -45.109375 21.890625 -45.453125 23.078125 -46.140625 C 24.265625 -46.835938 25.585938 -47.1875 27.046875 -47.1875 C 28.117188 -47.1875 29.304688 -46.914062 30.609375 -46.375 C 31.921875 -45.84375 33.070312 -45.578125 34.0625 -45.578125 C 34.675781 -45.578125 35.140625 -45.726562 35.453125 -46.03125 L 37.640625 -48.34375 C 37.640625 -48.34375 37.847656 -48.414062 38.265625 -48.5625 C 38.691406 -48.71875 39.132812 -48.796875 39.59375 -48.796875 C 40.28125 -48.796875 41.007812 -48.203125 41.78125 -47.015625 C 42.550781 -45.828125 43.238281 -44.367188 43.84375 -42.640625 C 44.457031 -40.910156 44.84375 -39.242188 45 -37.640625 L 45.578125 -32.6875 L 48 -21.875 L 48 -16.796875 Z M 39.703125 -24.40625 C 39.703125 -25.25 39.566406 -26.09375 39.296875 -26.9375 C 39.035156 -27.78125 38.90625 -28.203125 38.90625 -28.203125 L 36.484375 -32.109375 L 35.453125 -34.296875 C 35.453125 -34.296875 35.046875 -34.546875 34.234375 -35.046875 C 33.429688 -35.546875 32.394531 -36.023438 31.125 -36.484375 C 29.863281 -36.941406 28.503906 -37.171875 27.046875 -37.171875 C 25.128906 -37.171875 23.226562 -36.554688 21.34375 -35.328125 C 19.46875 -34.109375 17.894531 -32.5 16.625 -30.5 C 15.363281 -28.5 14.734375 -26.347656 14.734375 -24.046875 C 14.734375 -23.359375 14.882812 -22.570312 15.1875 -21.6875 C 15.5 -20.8125 15.785156 -20.023438 16.046875 -19.328125 C 16.316406 -18.640625 16.453125 -18.296875 16.453125 -18.296875 L 19.5625 -15.890625 L 21.515625 -14.15625 C 21.515625 -14.15625 22.050781 -13.90625 23.125 -13.40625 C 24.207031 -12.90625 25.054688 -12.65625 25.671875 -12.65625 C 29.890625 -12.65625 33.28125 -13.691406 35.84375 -15.765625 C 38.414062 -17.835938 39.703125 -20.71875 39.703125 -24.40625 Z M 39.703125 -24.40625 "/></g></g></g><g fill="#000000" fill-opacity="1"><g transform="translate(247.94721, 322.059897)"><g><path d="M 55.359375 -24.40625 C 55.359375 -24.164062 55.359375 -23.953125 55.359375 -23.765625 C 55.359375 -23.578125 55.359375 -23.40625 55.359375 -23.25 C 55.359375 -22.09375 55.085938 -21.09375 54.546875 -20.25 L 50.875 -15.1875 C 50.789062 -15.113281 50.382812 -14.882812 49.65625 -14.5 C 48.925781 -14.113281 47.953125 -13.726562 46.734375 -13.34375 C 46.191406 -13.039062 45.382812 -12.617188 44.3125 -12.078125 C 43.238281 -11.546875 42.394531 -11.28125 41.78125 -11.28125 C 41.78125 -11.28125 41.757812 -11.28125 41.71875 -11.28125 C 41.675781 -11.28125 41.65625 -11.28125 41.65625 -11.28125 L 32.34375 -12.078125 C 32.257812 -12.078125 32.21875 -12.078125 32.21875 -12.078125 C 32.21875 -12.078125 32.179688 -12.078125 32.109375 -12.078125 C 30.648438 -12.078125 29.613281 -11.15625 29 -9.3125 C 28.382812 -7.476562 28.078125 -5.445312 28.078125 -3.21875 C 28.078125 -3.070312 28.078125 -2.878906 28.078125 -2.640625 C 28.078125 -2.410156 28.078125 -2.222656 28.078125 -2.078125 L 28.546875 5.296875 C 28.617188 6.597656 28.921875 7.515625 29.453125 8.046875 C 29.992188 8.585938 30.648438 9.050781 31.421875 9.4375 L 33.71875 10.359375 C 33.875 10.585938 34.21875 10.988281 34.75 11.5625 C 35.289062 12.144531 35.984375 12.859375 36.828125 13.703125 C 40.585938 16.765625 43.460938 19.3125 45.453125 21.34375 C 47.453125 23.382812 48.832031 25.398438 49.59375 27.390625 C 50.363281 29.390625 50.75 31.882812 50.75 34.875 C 50.75 41.164062 48.5625 46.015625 44.1875 49.421875 C 39.820312 52.835938 33.800781 54.546875 26.125 54.546875 C 22.59375 54.546875 19.484375 54.007812 16.796875 52.9375 C 14.117188 51.863281 12.050781 50.804688 10.59375 49.765625 C 9.132812 48.734375 8.40625 48.21875 8.40625 48.21875 L 1.265625 41.78125 L 0.453125 37.859375 C 0.453125 37.859375 0.265625 37.050781 -0.109375 35.4375 C -0.492188 33.832031 -0.6875 32.1875 -0.6875 30.5 C -0.6875 20.601562 3.566406 14.234375 12.078125 11.390625 L 20.828125 6.90625 L 21.296875 2.875 L 21.171875 -0.234375 L 21.984375 -4.71875 L 21.875 -7.484375 L 22.671875 -12.4375 C 22.671875 -12.507812 22.671875 -12.546875 22.671875 -12.546875 C 22.671875 -12.546875 22.671875 -12.582031 22.671875 -12.65625 C 22.671875 -13.425781 22.25 -14.347656 21.40625 -15.421875 C 20.5625 -16.492188 19.660156 -17.472656 18.703125 -18.359375 C 17.742188 -19.242188 17.148438 -19.757812 16.921875 -19.90625 L 12.203125 -26.59375 L 11.046875 -33.375 L 12.078125 -38.90625 L 13.578125 -40.390625 L 14.265625 -41.890625 L 17.953125 -45.8125 C 19.722656 -47.882812 21.566406 -49.4375 23.484375 -50.46875 C 25.398438 -51.5 27.660156 -52.015625 30.265625 -52.015625 C 30.648438 -52.015625 31.320312 -51.84375 32.28125 -51.5 C 33.238281 -51.15625 34.273438 -50.769531 35.390625 -50.34375 C 36.503906 -49.925781 37.460938 -49.546875 38.265625 -49.203125 C 39.078125 -48.859375 39.484375 -48.6875 39.484375 -48.6875 L 46.5 -46.609375 C 48.113281 -46.148438 49.585938 -44.804688 50.921875 -42.578125 C 52.265625 -40.359375 53.335938 -37.632812 54.140625 -34.40625 C 54.953125 -31.1875 55.359375 -27.851562 55.359375 -24.40625 Z M 43.15625 37.0625 L 42.234375 33.140625 L 42.234375 29.921875 C 42.234375 29.078125 41.46875 27.867188 39.9375 26.296875 C 38.40625 24.722656 36.582031 23.09375 34.46875 21.40625 C 32.363281 19.71875 30.3125 18.296875 28.3125 17.140625 C 26.320312 15.992188 24.863281 15.421875 23.9375 15.421875 C 22.707031 15.421875 21.207031 15.800781 19.4375 16.5625 C 17.675781 17.332031 16.101562 18.117188 14.71875 18.921875 C 13.34375 19.734375 12.539062 20.253906 12.3125 20.484375 L 10.703125 22.09375 C 10.703125 22.09375 10.453125 22.320312 9.953125 22.78125 C 9.453125 23.25 8.914062 23.726562 8.34375 24.21875 C 7.769531 24.71875 7.367188 25.125 7.140625 25.4375 L 6.21875 29.34375 C 6.363281 29.957031 6.628906 31.164062 7.015625 32.96875 C 7.398438 34.769531 8.070312 36.59375 9.03125 38.4375 C 9.988281 40.28125 11.3125 41.703125 13 42.703125 C 15.6875 44.390625 18.351562 45.554688 21 46.203125 C 23.644531 46.859375 26.046875 47.1875 28.203125 47.1875 C 30.503906 47.1875 32.804688 46.742188 35.109375 45.859375 C 37.410156 44.984375 39.347656 43.832031 40.921875 42.40625 C 42.492188 40.988281 43.28125 39.515625 43.28125 37.984375 C 43.28125 37.597656 43.238281 37.289062 43.15625 37.0625 Z M 47.765625 -28.421875 C 47.765625 -31.566406 46.898438 -34.5 45.171875 -37.21875 C 43.441406 -39.945312 41.390625 -41.617188 39.015625 -42.234375 L 37.171875 -42.8125 L 34.296875 -42.46875 L 31.765625 -43.625 L 29.921875 -44.203125 C 29.460938 -44.347656 29.078125 -44.421875 28.765625 -44.421875 C 27.460938 -44.421875 26.117188 -43.75 24.734375 -42.40625 C 23.359375 -41.0625 22.207031 -39.507812 21.28125 -37.75 C 20.363281 -35.988281 19.90625 -34.414062 19.90625 -33.03125 C 19.90625 -30.800781 20.710938 -28.613281 22.328125 -26.46875 C 23.941406 -24.320312 26.128906 -22.554688 28.890625 -21.171875 C 31.648438 -19.796875 34.679688 -19.109375 37.984375 -19.109375 C 41.203125 -19.109375 43.632812 -19.96875 45.28125 -21.6875 C 46.9375 -23.414062 47.765625 -25.660156 47.765625 -28.421875 Z M 47.765625 -28.421875 "/></g></g></g><g fill="#000000" fill-opacity="1"><g transform="translate(312.517515, 322.059897)"><g><path d="M 48 -50.40625 C 48 -49.257812 47.304688 -48.164062 45.921875 -47.125 C 44.535156 -46.09375 42.847656 -45.382812 40.859375 -45 C 37.640625 -44.3125 35.050781 -43.351562 33.09375 -42.125 C 31.132812 -40.894531 29.710938 -39.78125 28.828125 -38.78125 C 27.941406 -37.789062 27.5 -37.296875 27.5 -37.296875 L 26.9375 -33.84375 L 24.515625 -28.078125 C 24.515625 -28.078125 24.4375 -27.710938 24.28125 -26.984375 C 24.125 -26.253906 24.046875 -25.046875 24.046875 -23.359375 C 24.046875 -20.441406 24.375 -17.8125 25.03125 -15.46875 C 25.6875 -13.132812 26.015625 -11.429688 26.015625 -10.359375 C 26.015625 -9.515625 25.859375 -8.535156 25.546875 -7.421875 C 25.242188 -6.304688 24.800781 -5.328125 24.21875 -4.484375 C 23.644531 -3.640625 22.863281 -3.21875 21.875 -3.21875 C 21.332031 -3.21875 20.867188 -3.582031 20.484375 -4.3125 C 20.097656 -5.039062 19.753906 -5.75 19.453125 -6.4375 L 18.421875 -9.4375 L 17.15625 -11.859375 L 17.375 -18.765625 L 16.921875 -20.953125 L 17.03125 -25.328125 L 16.6875 -28.203125 L 17.609375 -33.609375 L 17.03125 -42.234375 L 15.765625 -48.796875 L 15.3125 -56.390625 C 15.3125 -56.472656 15.3125 -56.515625 15.3125 -56.515625 C 15.3125 -56.515625 15.3125 -56.550781 15.3125 -56.625 C 15.3125 -57.46875 15.617188 -58.234375 16.234375 -58.921875 C 16.847656 -59.617188 17.691406 -59.96875 18.765625 -59.96875 C 19.378906 -59.96875 20.03125 -59.695312 20.71875 -59.15625 C 21.40625 -58.625 21.75 -58.050781 21.75 -57.4375 L 21.75 -56.390625 L 22.5625 -53.640625 L 22.5625 -51.5625 L 22.90625 -50.40625 C 23.289062 -49.414062 23.847656 -48.554688 24.578125 -47.828125 C 25.304688 -47.097656 26.09375 -46.734375 26.9375 -46.734375 C 27.007812 -46.734375 27.082031 -46.734375 27.15625 -46.734375 C 27.238281 -46.734375 27.316406 -46.734375 27.390625 -46.734375 C 28.773438 -46.960938 29.960938 -47.457031 30.953125 -48.21875 C 31.953125 -48.988281 32.894531 -49.832031 33.78125 -50.75 C 34.664062 -51.675781 35.644531 -52.460938 36.71875 -53.109375 C 37.789062 -53.765625 39.054688 -54.09375 40.515625 -54.09375 C 42.503906 -54.09375 44.25 -53.742188 45.75 -53.046875 C 47.25 -52.359375 48 -51.476562 48 -50.40625 Z M 48 -50.40625 "/></g></g></g><g fill="#000000" fill-opacity="1"><g transform="translate(365.693065, 322.059897)"><g><path d="M 49.71875 -12.65625 C 49.71875 -12.65625 49.695312 -12.019531 49.65625 -10.75 C 49.625 -9.488281 49.507812 -8.1875 49.3125 -6.84375 C 49.125 -5.5 48.800781 -4.710938 48.34375 -4.484375 C 47.882812 -4.335938 47.5 -4.265625 47.1875 -4.265625 C 46.644531 -4.265625 46.179688 -4.320312 45.796875 -4.4375 C 45.421875 -4.550781 45.234375 -4.609375 45.234375 -4.609375 L 40.625 -8.0625 L 31.421875 -6.09375 C 29.648438 -5.71875 27.941406 -5.453125 26.296875 -5.296875 C 24.648438 -5.140625 23.132812 -5.0625 21.75 -5.0625 C 19.601562 -5.0625 17.9375 -5.828125 16.75 -7.359375 C 15.5625 -8.898438 14.3125 -10.515625 13 -12.203125 C 11.851562 -13.660156 10.875 -15.132812 10.0625 -16.625 C 9.257812 -18.125 8.859375 -19.375 8.859375 -20.375 C 8.859375 -23.0625 9.242188 -25.570312 10.015625 -27.90625 C 10.785156 -30.25 11.664062 -32.335938 12.65625 -34.171875 C 13.65625 -36.015625 14.535156 -37.453125 15.296875 -38.484375 C 16.066406 -39.523438 16.453125 -40.046875 16.453125 -40.046875 L 19.21875 -44.203125 L 21.296875 -45.109375 C 21.296875 -45.109375 21.890625 -45.453125 23.078125 -46.140625 C 24.265625 -46.835938 25.585938 -47.1875 27.046875 -47.1875 C 28.117188 -47.1875 29.304688 -46.914062 30.609375 -46.375 C 31.921875 -45.84375 33.070312 -45.578125 34.0625 -45.578125 C 34.675781 -45.578125 35.140625 -45.726562 35.453125 -46.03125 L 37.640625 -48.34375 C 37.640625 -48.34375 37.847656 -48.414062 38.265625 -48.5625 C 38.691406 -48.71875 39.132812 -48.796875 39.59375 -48.796875 C 40.28125 -48.796875 41.007812 -48.203125 41.78125 -47.015625 C 42.550781 -45.828125 43.238281 -44.367188 43.84375 -42.640625 C 44.457031 -40.910156 44.84375 -39.242188 45 -37.640625 L 45.578125 -32.6875 L 48 -21.875 L 48 -16.796875 Z M 39.703125 -24.40625 C 39.703125 -25.25 39.566406 -26.09375 39.296875 -26.9375 C 39.035156 -27.78125 38.90625 -28.203125 38.90625 -28.203125 L 36.484375 -32.109375 L 35.453125 -34.296875 C 35.453125 -34.296875 35.046875 -34.546875 34.234375 -35.046875 C 33.429688 -35.546875 32.394531 -36.023438 31.125 -36.484375 C 29.863281 -36.941406 28.503906 -37.171875 27.046875 -37.171875 C 25.128906 -37.171875 23.226562 -36.554688 21.34375 -35.328125 C 19.46875 -34.109375 17.894531 -32.5 16.625 -30.5 C 15.363281 -28.5 14.734375 -26.347656 14.734375 -24.046875 C 14.734375 -23.359375 14.882812 -22.570312 15.1875 -21.6875 C 15.5 -20.8125 15.785156 -20.023438 16.046875 -19.328125 C 16.316406 -18.640625 16.453125 -18.296875 16.453125 -18.296875 L 19.5625 -15.890625 L 21.515625 -14.15625 C 21.515625 -14.15625 22.050781 -13.90625 23.125 -13.40625 C 24.207031 -12.90625 25.054688 -12.65625 25.671875 -12.65625 C 29.890625 -12.65625 33.28125 -13.691406 35.84375 -15.765625 C 38.414062 -17.835938 39.703125 -20.71875 39.703125 -24.40625 Z M 39.703125 -24.40625 "/></g></g></g><g fill="#000000" fill-opacity="1"><g transform="translate(425.314127, 322.059897)"><g><path d="M 73.65625 -11.625 C 73.65625 -11.082031 73.40625 -10.175781 72.90625 -8.90625 C 72.40625 -7.644531 71.769531 -6.492188 71 -5.453125 C 70.238281 -4.421875 69.4375 -3.90625 68.59375 -3.90625 C 67.90625 -3.90625 67.328125 -4.476562 66.859375 -5.625 C 66.398438 -6.78125 66.171875 -8.28125 66.171875 -10.125 C 66.171875 -10.507812 66.113281 -11.066406 66 -11.796875 C 65.882812 -12.523438 65.828125 -13.347656 65.828125 -14.265625 C 65.984375 -15.578125 66.15625 -16.804688 66.34375 -17.953125 C 66.539062 -19.109375 66.640625 -20.066406 66.640625 -20.828125 C 66.640625 -22.742188 66.503906 -24.660156 66.234375 -26.578125 C 65.960938 -28.503906 65.671875 -30.117188 65.359375 -31.421875 C 65.054688 -32.722656 64.90625 -33.375 64.90625 -33.375 C 64.90625 -33.375 64.460938 -33.796875 63.578125 -34.640625 C 62.703125 -35.484375 61.765625 -36.347656 60.765625 -37.234375 C 59.765625 -38.117188 59.035156 -38.5625 58.578125 -38.5625 C 57.347656 -38.5625 56.347656 -38.234375 55.578125 -37.578125 C 54.816406 -36.921875 54.4375 -36.59375 54.4375 -36.59375 L 53.40625 -34.765625 L 50.875 -33.265625 L 49.609375 -31.875 L 48.6875 -29.6875 L 46.5 -26.46875 L 46.84375 -12.890625 C 46.84375 -12.816406 46.84375 -12.757812 46.84375 -12.71875 C 46.84375 -12.675781 46.84375 -12.617188 46.84375 -12.546875 C 46.84375 -10.929688 46.492188 -9.507812 45.796875 -8.28125 C 45.109375 -7.050781 44.226562 -6.4375 43.15625 -6.4375 C 42.394531 -6.4375 41.664062 -6.707031 40.96875 -7.25 C 40.28125 -7.789062 39.9375 -8.441406 39.9375 -9.203125 L 39.828125 -13.234375 L 38.671875 -17.15625 L 39.125 -27.15625 C 39.125 -27.3125 39.125 -27.46875 39.125 -27.625 C 39.125 -27.78125 39.125 -27.929688 39.125 -28.078125 C 39.125 -31.835938 38.507812 -35.019531 37.28125 -37.625 C 36.0625 -40.238281 34.375 -41.546875 32.21875 -41.546875 C 30.914062 -41.546875 29.976562 -41.21875 29.40625 -40.5625 C 28.832031 -39.914062 28.546875 -39.59375 28.546875 -39.59375 L 25.09375 -38.21875 L 23.703125 -33.265625 C 23.703125 -33.265625 23.394531 -32.800781 22.78125 -31.875 C 22.175781 -30.957031 21.566406 -29.863281 20.953125 -28.59375 C 20.335938 -27.332031 20.03125 -26.085938 20.03125 -24.859375 C 20.03125 -22.171875 20.410156 -19.503906 21.171875 -16.859375 C 21.941406 -14.210938 22.328125 -11.660156 22.328125 -9.203125 C 22.328125 -7.285156 21.804688 -5.40625 20.765625 -3.5625 C 19.734375 -1.726562 18.71875 -0.8125 17.71875 -0.8125 C 17.34375 -0.8125 16.976562 -1.039062 16.625 -1.5 C 16.28125 -1.957031 16.109375 -2.1875 16.109375 -2.1875 L 14.15625 -3.5625 L 13.8125 -6.21875 L 13.34375 -9.671875 L 14.390625 -15.890625 L 13.703125 -27.734375 L 14.734375 -32.453125 L 14.84375 -39.125 L 15.53125 -41.546875 L 16.34375 -51.109375 C 16.5 -52.410156 16.863281 -53.519531 17.4375 -54.4375 C 18.007812 -55.363281 18.875 -55.828125 20.03125 -55.828125 C 21.101562 -55.828125 21.789062 -55.019531 22.09375 -53.40625 C 22.40625 -51.789062 22.5625 -50.332031 22.5625 -49.03125 C 22.5625 -48.488281 22.539062 -48.023438 22.5 -47.640625 C 22.457031 -47.265625 22.4375 -47.078125 22.4375 -47.078125 C 22.4375 -47.078125 22.992188 -47.113281 24.109375 -47.1875 C 25.222656 -47.257812 26.410156 -47.375 27.671875 -47.53125 C 28.941406 -47.6875 29.769531 -47.878906 30.15625 -48.109375 C 31.6875 -48.796875 32.644531 -49.332031 33.03125 -49.71875 C 33.414062 -50.101562 34.109375 -50.296875 35.109375 -50.296875 C 35.640625 -50.296875 36.382812 -49.773438 37.34375 -48.734375 C 38.300781 -47.703125 39.28125 -46.550781 40.28125 -45.28125 C 41.28125 -44.019531 42.046875 -43.046875 42.578125 -42.359375 C 43.503906 -41.285156 44.695312 -40.75 46.15625 -40.75 C 47.15625 -40.75 48 -41.050781 48.6875 -41.65625 L 53.171875 -45.8125 C 53.171875 -45.8125 53.6875 -45.90625 54.71875 -46.09375 C 55.757812 -46.28125 56.851562 -46.46875 58 -46.65625 C 59.15625 -46.851562 59.925781 -46.953125 60.3125 -46.953125 C 61.613281 -46.953125 62.835938 -46.566406 63.984375 -45.796875 C 65.140625 -45.035156 66.175781 -44.132812 67.09375 -43.09375 C 68.019531 -42.0625 68.734375 -41.160156 69.234375 -40.390625 C 69.734375 -39.628906 69.984375 -39.25 69.984375 -39.25 L 71.8125 -36.828125 L 72.515625 -33.140625 L 73.4375 -29 Z M 73.65625 -11.625 "/></g></g></g><g fill="#000000" fill-opacity="1"><g transform="translate(512.213579, 322.059897)"><g><path d="M 46.375 -43.96875 C 46.375 -41.96875 46.03125 -40.546875 45.34375 -39.703125 C 44.65625 -38.859375 43.945312 -38.359375 43.21875 -38.203125 C 42.488281 -38.054688 42.125 -37.984375 42.125 -37.984375 L 37.40625 -43.734375 L 34.875 -44.890625 C 34.875 -44.890625 34.410156 -44.8125 33.484375 -44.65625 C 32.566406 -44.5 31.53125 -44.207031 30.375 -43.78125 C 29.226562 -43.363281 28.191406 -42.710938 27.265625 -41.828125 C 26.347656 -40.953125 25.890625 -39.75 25.890625 -38.21875 C 25.890625 -36.375 26.773438 -34.988281 28.546875 -34.0625 L 35.21875 -30.953125 L 36.828125 -28.765625 L 39.484375 -27.5 L 41.4375 -22.328125 C 41.4375 -22.328125 41.507812 -21.90625 41.65625 -21.0625 C 41.8125 -20.21875 41.984375 -19.296875 42.171875 -18.296875 C 42.367188 -17.296875 42.46875 -16.566406 42.46875 -16.109375 C 42.46875 -13.191406 42.101562 -10.96875 41.375 -9.4375 C 40.644531 -7.90625 40.28125 -7.140625 40.28125 -7.140625 L 39.25 -4.265625 L 33.03125 -0.8125 C 33.03125 -0.8125 32.242188 -0.351562 30.671875 0.5625 C 29.097656 1.488281 26.96875 1.953125 24.28125 1.953125 C 21.90625 1.953125 19.085938 1.472656 15.828125 0.515625 C 12.566406 -0.441406 9.476562 -1.613281 6.5625 -3 C 5.632812 -3.53125 4.710938 -4.351562 3.796875 -5.46875 C 2.878906 -6.582031 2.421875 -7.789062 2.421875 -9.09375 C 2.421875 -9.707031 2.84375 -10.265625 3.6875 -10.765625 C 4.53125 -11.265625 4.953125 -11.515625 4.953125 -11.515625 L 7.59375 -10.9375 L 10.25 -10.9375 L 15.3125 -8.171875 L 18.0625 -8.0625 C 18.0625 -8.0625 18.503906 -7.90625 19.390625 -7.59375 C 20.273438 -7.289062 21.269531 -6.984375 22.375 -6.671875 C 23.488281 -6.367188 24.351562 -6.21875 24.96875 -6.21875 C 26.351562 -6.21875 27.925781 -6.710938 29.6875 -7.703125 C 31.457031 -8.703125 32.992188 -9.988281 34.296875 -11.5625 C 35.597656 -13.132812 36.25 -14.765625 36.25 -16.453125 C 36.25 -17.523438 35.828125 -18.632812 34.984375 -19.78125 C 34.140625 -20.9375 32.914062 -22.207031 31.3125 -23.59375 C 28.695312 -25.894531 26.488281 -27.5625 24.6875 -28.59375 C 22.882812 -29.632812 21.519531 -30.632812 20.59375 -31.59375 C 19.675781 -32.550781 19.21875 -33.953125 19.21875 -35.796875 C 19.21875 -39.242188 19.597656 -41.867188 20.359375 -43.671875 C 21.128906 -45.472656 21.515625 -46.375 21.515625 -46.375 L 25.203125 -49.828125 L 28.203125 -50.53125 C 28.203125 -50.53125 28.660156 -50.644531 29.578125 -50.875 C 30.492188 -51.101562 31.523438 -51.3125 32.671875 -51.5 C 33.828125 -51.695312 34.789062 -51.796875 35.5625 -51.796875 C 37.175781 -51.796875 38.828125 -51.332031 40.515625 -50.40625 C 42.203125 -49.488281 43.597656 -48.414062 44.703125 -47.1875 C 45.816406 -45.957031 46.375 -44.882812 46.375 -43.96875 Z M 46.375 -43.96875 "/></g></g></g><g fill="#000000" fill-opacity="1"><g transform="translate(565.158911, 322.059897)"><g><path d="M 22.5625 -11.515625 C 22.5625 -9.128906 21.789062 -7.035156 20.25 -5.234375 C 18.71875 -3.429688 16.992188 -2.53125 15.078125 -2.53125 C 13.316406 -2.53125 11.859375 -3.238281 10.703125 -4.65625 C 9.554688 -6.082031 8.984375 -7.90625 8.984375 -10.125 C 8.984375 -12.351562 9.347656 -13.925781 10.078125 -14.84375 C 10.804688 -15.769531 11.515625 -16.328125 12.203125 -16.515625 C 12.890625 -16.703125 13.234375 -16.796875 13.234375 -16.796875 L 17.953125 -17.265625 L 19.21875 -16 C 19.21875 -16 19.503906 -15.863281 20.078125 -15.59375 C 20.660156 -15.320312 21.21875 -14.878906 21.75 -14.265625 C 22.289062 -13.648438 22.5625 -12.734375 22.5625 -11.515625 Z M 22.5625 -11.515625 "/></g></g></g><g fill="#000000" fill-opacity="1"><g transform="translate(596.695892, 322.059897)"><g><path d="M 55.359375 -69.171875 C 55.359375 -68.171875 55.164062 -67.171875 54.78125 -66.171875 C 54.394531 -65.179688 53.664062 -64.6875 52.59375 -64.6875 C 51.90625 -64.6875 51.234375 -64.992188 50.578125 -65.609375 C 49.929688 -66.222656 49.609375 -66.53125 49.609375 -66.53125 L 47.65625 -67.4375 L 45.578125 -70.546875 C 45.578125 -70.546875 45.304688 -70.796875 44.765625 -71.296875 C 44.234375 -71.796875 43.738281 -72.046875 43.28125 -72.046875 C 41.664062 -72.046875 40.109375 -71.179688 38.609375 -69.453125 C 37.117188 -67.734375 35.773438 -65.359375 34.578125 -62.328125 C 33.390625 -59.296875 32.453125 -55.878906 31.765625 -52.078125 C 31.078125 -48.273438 30.734375 -44.304688 30.734375 -40.171875 C 30.734375 -38.867188 30.90625 -37.867188 31.25 -37.171875 C 31.59375 -36.484375 32.378906 -35.867188 33.609375 -35.328125 L 38.09375 -33.71875 L 45.578125 -33.375 C 46.347656 -33.375 47 -33.085938 47.53125 -32.515625 C 48.070312 -31.941406 48.34375 -31.269531 48.34375 -30.5 C 48.34375 -29.582031 48.050781 -28.851562 47.46875 -28.3125 C 46.894531 -27.769531 46.300781 -27.382812 45.6875 -27.15625 C 45.070312 -26.925781 44.765625 -26.8125 44.765625 -26.8125 C 44.765625 -26.8125 44.378906 -26.410156 43.609375 -25.609375 C 42.847656 -24.804688 42.160156 -24.40625 41.546875 -24.40625 C 40.546875 -24.40625 39.375 -24.5 38.03125 -24.6875 C 36.695312 -24.875 35.453125 -24.96875 34.296875 -24.96875 C 32.609375 -24.96875 31.285156 -24.796875 30.328125 -24.453125 C 29.367188 -24.109375 28.695312 -23.300781 28.3125 -22.03125 C 27.925781 -20.769531 27.734375 -18.757812 27.734375 -16 C 27.734375 -15.6875 27.734375 -15.375 27.734375 -15.0625 C 27.734375 -14.757812 27.734375 -14.421875 27.734375 -14.046875 L 28.078125 -1.15625 L 28.421875 3.453125 L 26.9375 4.375 L 25.4375 5.984375 L 23.359375 5.75 L 21.515625 5.75 L 21.0625 3.21875 L 20.140625 0.921875 L 21.40625 -4.953125 L 21.40625 -9.203125 L 22.21875 -11.96875 L 21.75 -14.609375 L 22.21875 -20.609375 C 22.289062 -20.910156 22.328125 -21.210938 22.328125 -21.515625 C 22.328125 -21.828125 22.328125 -22.097656 22.328125 -22.328125 C 22.328125 -24.015625 22.039062 -25.109375 21.46875 -25.609375 C 20.894531 -26.109375 20.144531 -26.359375 19.21875 -26.359375 L 13.703125 -26.359375 L 8.40625 -28.890625 C 7.707031 -29.273438 7.164062 -29.789062 6.78125 -30.4375 C 6.40625 -31.09375 6.21875 -31.726562 6.21875 -32.34375 C 6.21875 -32.875 6.332031 -33.503906 6.5625 -34.234375 C 6.789062 -34.960938 7.132812 -35.328125 7.59375 -35.328125 C 7.59375 -35.328125 7.613281 -35.328125 7.65625 -35.328125 C 7.695312 -35.328125 7.71875 -35.328125 7.71875 -35.328125 L 10.9375 -34.765625 L 12.890625 -35.109375 L 16.578125 -34.40625 L 21.40625 -34.53125 C 22.019531 -34.53125 22.535156 -34.78125 22.953125 -35.28125 C 23.378906 -35.78125 23.59375 -36.296875 23.59375 -36.828125 L 23.484375 -40.75 C 23.484375 -40.820312 23.484375 -40.859375 23.484375 -40.859375 C 23.484375 -40.859375 23.484375 -40.894531 23.484375 -40.96875 C 23.484375 -41.8125 23.597656 -42.75 23.828125 -43.78125 C 24.054688 -44.820312 24.285156 -45.726562 24.515625 -46.5 C 24.742188 -47.269531 24.859375 -47.65625 24.859375 -47.65625 C 24.859375 -47.65625 24.914062 -48.441406 25.03125 -50.015625 C 25.144531 -51.585938 25.316406 -53.445312 25.546875 -55.59375 C 25.773438 -57.738281 26.125 -59.691406 26.59375 -61.453125 C 26.894531 -62.453125 27.3125 -63.546875 27.84375 -64.734375 C 28.382812 -65.929688 28.882812 -66.953125 29.34375 -67.796875 C 29.8125 -68.640625 30.046875 -69.0625 30.046875 -69.0625 L 32.21875 -73.890625 L 34.1875 -75.15625 C 34.1875 -75.15625 34.644531 -75.460938 35.5625 -76.078125 C 36.476562 -76.691406 37.585938 -77.285156 38.890625 -77.859375 C 40.203125 -78.429688 41.394531 -78.71875 42.46875 -78.71875 C 44.382812 -78.71875 46.320312 -78.296875 48.28125 -77.453125 C 50.238281 -76.609375 51.90625 -75.457031 53.28125 -74 C 54.664062 -72.539062 55.359375 -70.929688 55.359375 -69.171875 Z M 55.359375 -69.171875 "/></g></g></g><g fill="#000000" fill-opacity="1"><g transform="translate(655.9717, 322.059897)"><g><path d="M 48 -50.40625 C 48 -49.257812 47.304688 -48.164062 45.921875 -47.125 C 44.535156 -46.09375 42.847656 -45.382812 40.859375 -45 C 37.640625 -44.3125 35.050781 -43.351562 33.09375 -42.125 C 31.132812 -40.894531 29.710938 -39.78125 28.828125 -38.78125 C 27.941406 -37.789062 27.5 -37.296875 27.5 -37.296875 L 26.9375 -33.84375 L 24.515625 -28.078125 C 24.515625 -28.078125 24.4375 -27.710938 24.28125 -26.984375 C 24.125 -26.253906 24.046875 -25.046875 24.046875 -23.359375 C 24.046875 -20.441406 24.375 -17.8125 25.03125 -15.46875 C 25.6875 -13.132812 26.015625 -11.429688 26.015625 -10.359375 C 26.015625 -9.515625 25.859375 -8.535156 25.546875 -7.421875 C 25.242188 -6.304688 24.800781 -5.328125 24.21875 -4.484375 C 23.644531 -3.640625 22.863281 -3.21875 21.875 -3.21875 C 21.332031 -3.21875 20.867188 -3.582031 20.484375 -4.3125 C 20.097656 -5.039062 19.753906 -5.75 19.453125 -6.4375 L 18.421875 -9.4375 L 17.15625 -11.859375 L 17.375 -18.765625 L 16.921875 -20.953125 L 17.03125 -25.328125 L 16.6875 -28.203125 L 17.609375 -33.609375 L 17.03125 -42.234375 L 15.765625 -48.796875 L 15.3125 -56.390625 C 15.3125 -56.472656 15.3125 -56.515625 15.3125 -56.515625 C 15.3125 -56.515625 15.3125 -56.550781 15.3125 -56.625 C 15.3125 -57.46875 15.617188 -58.234375 16.234375 -58.921875 C 16.847656 -59.617188 17.691406 -59.96875 18.765625 -59.96875 C 19.378906 -59.96875 20.03125 -59.695312 20.71875 -59.15625 C 21.40625 -58.625 21.75 -58.050781 21.75 -57.4375 L 21.75 -56.390625 L 22.5625 -53.640625 L 22.5625 -51.5625 L 22.90625 -50.40625 C 23.289062 -49.414062 23.847656 -48.554688 24.578125 -47.828125 C 25.304688 -47.097656 26.09375 -46.734375 26.9375 -46.734375 C 27.007812 -46.734375 27.082031 -46.734375 27.15625 -46.734375 C 27.238281 -46.734375 27.316406 -46.734375 27.390625 -46.734375 C 28.773438 -46.960938 29.960938 -47.457031 30.953125 -48.21875 C 31.953125 -48.988281 32.894531 -49.832031 33.78125 -50.75 C 34.664062 -51.675781 35.644531 -52.460938 36.71875 -53.109375 C 37.789062 -53.765625 39.054688 -54.09375 40.515625 -54.09375 C 42.503906 -54.09375 44.25 -53.742188 45.75 -53.046875 C 47.25 -52.359375 48 -51.476562 48 -50.40625 Z M 48 -50.40625 "/></g></g></g><g fill="#000000" fill-opacity="1"><g transform="translate(709.14725, 322.059897)"><g><path d="M 51.5625 -32.34375 C 51.5625 -30.269531 50.890625 -28.425781 49.546875 -26.8125 C 48.203125 -25.207031 46.535156 -24.40625 44.546875 -24.40625 C 41.398438 -24.40625 38.097656 -24.785156 34.640625 -25.546875 C 31.191406 -26.316406 28.238281 -26.703125 25.78125 -26.703125 C 23.25 -26.703125 21.390625 -26.222656 20.203125 -25.265625 C 19.015625 -24.304688 18.421875 -23.175781 18.421875 -21.875 C 18.421875 -20.875 18.765625 -19.910156 19.453125 -18.984375 C 20.597656 -17.222656 22.128906 -15.613281 24.046875 -14.15625 C 25.972656 -12.695312 27.703125 -11.523438 29.234375 -10.640625 C 30.765625 -9.765625 31.53125 -9.328125 31.53125 -9.328125 L 35.328125 -8.171875 L 38.328125 -7.9375 L 39.828125 -6.4375 L 41.78125 -4.828125 L 42.015625 -1.03125 L 40.859375 0.109375 L 39.9375 1.609375 C 39.9375 1.609375 39.664062 1.722656 39.125 1.953125 C 38.59375 2.179688 38.132812 2.296875 37.75 2.296875 C 36.0625 2.296875 34.238281 1.894531 32.28125 1.09375 C 30.320312 0.289062 28.671875 -0.492188 27.328125 -1.265625 C 25.992188 -2.035156 25.328125 -2.421875 25.328125 -2.421875 L 21.296875 -4.828125 L 20.375 -6.796875 L 13.921875 -14.734375 C 13.921875 -14.734375 13.648438 -15.347656 13.109375 -16.578125 C 12.578125 -17.804688 12.3125 -18.914062 12.3125 -19.90625 C 12.3125 -20.976562 12.460938 -22.164062 12.765625 -23.46875 C 13.078125 -24.78125 13.234375 -25.4375 13.234375 -25.4375 L 13.46875 -32.34375 C 13.46875 -32.800781 13.582031 -33.601562 13.8125 -34.75 C 14.039062 -35.90625 14.269531 -36.960938 14.5 -37.921875 C 14.726562 -38.878906 14.84375 -39.359375 14.84375 -39.359375 C 14.84375 -39.359375 15.34375 -39.894531 16.34375 -40.96875 C 17.34375 -42.039062 18.53125 -43.269531 19.90625 -44.65625 C 21.289062 -46.039062 22.554688 -47.15625 23.703125 -48 C 25.015625 -48.84375 26.28125 -49.492188 27.5 -49.953125 C 28.726562 -50.410156 29.34375 -50.640625 29.34375 -50.640625 L 31.875 -51.796875 L 37.75 -52.375 C 42.125 -52.375 45.519531 -50.566406 47.9375 -46.953125 C 50.351562 -43.347656 51.5625 -38.476562 51.5625 -32.34375 Z M 45.109375 -38.328125 C 45.109375 -40.015625 44.492188 -41.394531 43.265625 -42.46875 C 42.046875 -43.539062 40.628906 -44.347656 39.015625 -44.890625 C 38.628906 -45.035156 38.164062 -45.144531 37.625 -45.21875 C 37.09375 -45.300781 36.597656 -45.34375 36.140625 -45.34375 C 35.679688 -45.34375 35.273438 -45.320312 34.921875 -45.28125 C 34.578125 -45.25 34.40625 -45.234375 34.40625 -45.234375 L 31.65625 -43.28125 L 28.203125 -43.046875 C 28.203125 -43.046875 27.796875 -42.738281 26.984375 -42.125 C 26.179688 -41.507812 25.375 -40.78125 24.5625 -39.9375 C 23.757812 -39.09375 23.359375 -38.285156 23.359375 -37.515625 C 23.359375 -36.140625 24.128906 -34.875 25.671875 -33.71875 C 26.046875 -33.414062 26.46875 -33.265625 26.9375 -33.265625 C 27.46875 -33.265625 28 -33.378906 28.53125 -33.609375 C 29.070312 -33.835938 29.648438 -33.953125 30.265625 -33.953125 C 30.648438 -33.953125 30.957031 -33.914062 31.1875 -33.84375 L 34.40625 -32.796875 L 37.515625 -33.140625 C 40.660156 -33.609375 42.710938 -34.144531 43.671875 -34.75 C 44.628906 -35.363281 45.109375 -36.554688 45.109375 -38.328125 Z M 45.109375 -38.328125 "/></g></g></g><g fill="#000000" fill-opacity="1"><g transform="translate(771.415597, 322.059897)"><g><path d="M 51.5625 -32.34375 C 51.5625 -30.269531 50.890625 -28.425781 49.546875 -26.8125 C 48.203125 -25.207031 46.535156 -24.40625 44.546875 -24.40625 C 41.398438 -24.40625 38.097656 -24.785156 34.640625 -25.546875 C 31.191406 -26.316406 28.238281 -26.703125 25.78125 -26.703125 C 23.25 -26.703125 21.390625 -26.222656 20.203125 -25.265625 C 19.015625 -24.304688 18.421875 -23.175781 18.421875 -21.875 C 18.421875 -20.875 18.765625 -19.910156 19.453125 -18.984375 C 20.597656 -17.222656 22.128906 -15.613281 24.046875 -14.15625 C 25.972656 -12.695312 27.703125 -11.523438 29.234375 -10.640625 C 30.765625 -9.765625 31.53125 -9.328125 31.53125 -9.328125 L 35.328125 -8.171875 L 38.328125 -7.9375 L 39.828125 -6.4375 L 41.78125 -4.828125 L 42.015625 -1.03125 L 40.859375 0.109375 L 39.9375 1.609375 C 39.9375 1.609375 39.664062 1.722656 39.125 1.953125 C 38.59375 2.179688 38.132812 2.296875 37.75 2.296875 C 36.0625 2.296875 34.238281 1.894531 32.28125 1.09375 C 30.320312 0.289062 28.671875 -0.492188 27.328125 -1.265625 C 25.992188 -2.035156 25.328125 -2.421875 25.328125 -2.421875 L 21.296875 -4.828125 L 20.375 -6.796875 L 13.921875 -14.734375 C 13.921875 -14.734375 13.648438 -15.347656 13.109375 -16.578125 C 12.578125 -17.804688 12.3125 -18.914062 12.3125 -19.90625 C 12.3125 -20.976562 12.460938 -22.164062 12.765625 -23.46875 C 13.078125 -24.78125 13.234375 -25.4375 13.234375 -25.4375 L 13.46875 -32.34375 C 13.46875 -32.800781 13.582031 -33.601562 13.8125 -34.75 C 14.039062 -35.90625 14.269531 -36.960938 14.5 -37.921875 C 14.726562 -38.878906 14.84375 -39.359375 14.84375 -39.359375 C 14.84375 -39.359375 15.34375 -39.894531 16.34375 -40.96875 C 17.34375 -42.039062 18.53125 -43.269531 19.90625 -44.65625 C 21.289062 -46.039062 22.554688 -47.15625 23.703125 -48 C 25.015625 -48.84375 26.28125 -49.492188 27.5 -49.953125 C 28.726562 -50.410156 29.34375 -50.640625 29.34375 -50.640625 L 31.875 -51.796875 L 37.75 -52.375 C 42.125 -52.375 45.519531 -50.566406 47.9375 -46.953125 C 50.351562 -43.347656 51.5625 -38.476562 51.5625 -32.34375 Z M 45.109375 -38.328125 C 45.109375 -40.015625 44.492188 -41.394531 43.265625 -42.46875 C 42.046875 -43.539062 40.628906 -44.347656 39.015625 -44.890625 C 38.628906 -45.035156 38.164062 -45.144531 37.625 -45.21875 C 37.09375 -45.300781 36.597656 -45.34375 36.140625 -45.34375 C 35.679688 -45.34375 35.273438 -45.320312 34.921875 -45.28125 C 34.578125 -45.25 34.40625 -45.234375 34.40625 -45.234375 L 31.65625 -43.28125 L 28.203125 -43.046875 C 28.203125 -43.046875 27.796875 -42.738281 26.984375 -42.125 C 26.179688 -41.507812 25.375 -40.78125 24.5625 -39.9375 C 23.757812 -39.09375 23.359375 -38.285156 23.359375 -37.515625 C 23.359375 -36.140625 24.128906 -34.875 25.671875 -33.71875 C 26.046875 -33.414062 26.46875 -33.265625 26.9375 -33.265625 C 27.46875 -33.265625 28 -33.378906 28.53125 -33.609375 C 29.070312 -33.835938 29.648438 -33.953125 30.265625 -33.953125 C 30.648438 -33.953125 30.957031 -33.914062 31.1875 -33.84375 L 34.40625 -32.796875 L 37.515625 -33.140625 C 40.660156 -33.609375 42.710938 -34.144531 43.671875 -34.75 C 44.628906 -35.363281 45.109375 -36.554688 45.109375 -38.328125 Z M 45.109375 -38.328125 "/></g></g></g></g></g></g></g></g></g></mask><clipPath id="aae05dffc0"><path d="M 0.476562 19.925781 L 899.523438 19.925781 L 899.523438 417 L 0.476562 417 Z M 0.476562 19.925781 " clip-rule="nonzero"/></clipPath><clipPath id="de3a6414e1"><rect x="0" width="900" y="0" height="417"/></clipPath><clipPath id="f4dd5a9ad0"><rect x="0" width="900" y="0" height="417"/></clipPath><clipPath id="3321fc919c"><rect x="0" width="900" y="0" height="417"/></clipPath></defs><g clip-path="url(#0a49aedb6c)"><g clip-path="url(#5525e7d6e7)"><path fill="url(#59e01cfd99)" d="M 334.589844 50.648438 L 334.589844 253.195312 L 580.328125 253.195312 L 580.328125 50.648438 Z M 334.589844 50.648438 " fill-rule="nonzero"/></g></g><g clip-path="url(#18c1bb4e36)"><g transform="matrix(1, 0, 0, 1, 0, 55)"><g clip-path="url(#3321fc919c)"><g clip-path="url(#bf00034813)"><g transform="matrix(1, 0, 0, 1, 0, -0.000000000000014211)"><g clip-path="url(#f4dd5a9ad0)"><g clip-path="url(#6058b79321)"><g mask="url(#9cfb32b09f)"><g transform="matrix(1, 0, 0, 1, 0, -0.000000000000014211)"><g clip-path="url(#de3a6414e1)"><g clip-path="url(#aae05dffc0)"><path fill="url(#b0c2149060)" d="M 0.476562 19.925781 L 0.476562 417 L 899.523438 417 L 899.523438 19.925781 Z M 0.476562 19.925781 " fill-rule="nonzero"/></g></g></g></g></g></g></g></g></g></g></g></svg>